<?xml version="1.0" encoding="UTF-8" standalone="no"?>
<!-- Created with Inkscape (http://www.inkscape.org/) -->

<svg
   width="500"
   height="500"
   viewBox="0 0 132.29167 132.29167"
   version="1.1"
   id="svg1"
   xml:space="preserve"
   xmlns="http://www.w3.org/2000/svg"
   xmlns:svg="http://www.w3.org/2000/svg"><defs
     id="defs1" /><g
     id="layer1"><path
       style="fill:#ededed;stroke-width:0.6548;fill-opacity:1"
       d="m 62.488655,131.26437 c -0.733094,-0.16683 -1.8812,-0.52405 -2.551342,-0.79384 -1.014198,-0.40829 -1.357059,-0.65855 -2.045456,-1.49299 -0.454856,-0.55138 -1.0609,-1.09095 -1.346765,-1.19909 -0.676781,-0.25596 -3.054456,-0.93854 -4.15797,-1.19366 -0.476438,-0.11019 -1.528923,-0.38734 -2.338865,-0.61599 -0.809934,-0.22865 -2.181183,-0.57458 -3.047214,-0.76874 -0.866031,-0.19416 -1.801575,-0.44816 -2.078988,-0.56444 -0.277413,-0.11628 -2.531402,-0.732 -5.008862,-1.36824 -2.47746,-0.63626 -5.089193,-1.33111 -5.803842,-1.54412 -1.864167,-0.55563 -2.967747,-0.83966 -4.830592,-1.24326 -0.902824,-0.19561 -2.30974,-0.57831 -3.126491,-0.85045 -0.816743,-0.27214 -2.342571,-0.69606 -3.390728,-0.94204 -2.306066,-0.5412 -4.212162,-1.03722 -6.063719,-1.57799 -2.746294,-0.80208 -5.049701,-1.4187 -6.410211,-1.71603 -0.7622968,-0.16658 -1.7758025,-0.43512 -2.252235,-0.59675 -0.7497384,-0.25434 -0.8596991,-0.35035 -0.8175819,-0.71381 0.026777,-0.23096 0.2606494,-0.73205 0.5197461,-1.1135 0.2590987,-0.38147 0.9778384,-1.43749 1.5972002,-2.34673 0.6193691,-0.90923 1.2040846,-1.77898 1.2993716,-1.93279 0.09529,-0.15381 0.727042,-1.08654 1.40391,-2.07273 0.676859,-0.9862 2.070914,-3.04048 3.097888,-4.56507 1.026981,-1.52459 2.118237,-3.083833 2.425023,-3.464973 0.306787,-0.38115 1.156343,-1.60053 1.887898,-2.70975 0.85156,-1.29115 1.468599,-2.05387 1.715039,-2.11993 0.21171,-0.0568 0.820077,-0.10425 1.351931,-0.10555 l 0.967008,-0.003 0.592233,-0.88087 c 0.32573,-0.48448 0.791817,-1.20562 1.035749,-1.60255 0.438899,-0.71418 0.455884,-0.72258 1.63379,-0.80831 l 1.190274,-0.0866 0.793964,-1.47262 0.79397,-1.47262 1.2971,-0.10729 c 2.030487,-0.16795 7.070249,-0.16914 7.173748,-0.002 0.18149,0.29367 -0.517351,0.84545 -1.221431,0.9644 -0.392533,0.0663 -1.187257,0.0347 -1.766059,-0.0702 -0.868861,-0.15756 -1.163324,-0.14447 -1.688728,0.0751 -0.35001,0.14625 -0.997174,0.27367 -1.438149,0.28317 -0.440975,0.009 -0.981964,0.068 -1.202199,0.13002 -0.4675,0.13165 -0.353919,-0.0766 -4.50212,8.25529 -3.078566,6.183453 -3.902564,7.783793 -4.576413,8.888113 -0.192026,0.31471 -0.307447,0.61386 -0.256491,0.66483 0.113565,0.11356 0.451242,0.14472 5.23097,0.48269 2.096315,0.14823 4.902949,0.35467 6.236965,0.45877 3.009445,0.23484 9.488017,1.11294 10.901238,1.47754 6.993056,1.80415 11.925993,4.05512 16.685108,7.61367 1.070191,0.80022 4.149769,3.83659 4.516051,4.45269 0.155784,0.26204 0.344399,0.47643 0.419145,0.47643 0.07473,0 0.135889,-5.06637 0.135889,-11.25863 V 98.851257 l -1.862422,-1.88374 c -1.826066,-1.84703 -3.705917,-3.23588 -5.810882,-4.29317 -0.496384,-0.24932 -0.922355,-0.47027 -0.94661,-0.491 -0.11364,-0.0971 0.359361,-1.13337 0.517344,-1.13337 0.327964,0 3.077531,1.55086 4.430955,2.49923 0.733606,0.51405 2.024405,1.62381 2.868439,2.46612 l 1.534607,1.53149 0.833901,-0.9279 c 0.851094,-0.94702 1.206657,-1.02795 1.206657,-0.27462 0,0.25756 0.100083,0.42289 0.255987,0.42289 0.145975,0 -0.144422,0.42006 -0.675693,0.97739 l -0.931688,0.97738 -0.07711,2.877403 c -0.04243,1.58257 -0.09115,6.71705 -0.108333,11.40992 -0.029,7.92712 0.04164,9.34893 0.407213,8.19707 0.150939,-0.47556 3.041442,-3.37465 4.653049,-4.66685 2.829376,-2.26864 5.769671,-3.91275 9.72019,-5.43518 4.210113,-1.62248 8.684739,-2.72335 12.830366,-3.1566 0.476436,-0.0498 1.957714,-0.20593 3.291731,-0.347 1.334017,-0.14106 3.672867,-0.34362 5.197457,-0.45012 6.27859,-0.43861 7.96931,-0.60163 7.96591,-0.76809 -0.002,-0.0953 -1.63101,-3.43604 -3.62015,-7.423893 -3.82054,-7.65949 -3.80957,-7.62831 -2.64464,-7.52066 0.40153,0.0371 0.57344,0.21465 0.96639,0.99801 0.26288,0.52408 1.90467,3.79849 3.6484,7.27646 1.74375,3.477973 3.34818,6.562343 3.56546,6.854153 0.21725,0.29182 0.75406,0.79857 1.19291,1.12612 0.43884,0.32755 1.31857,1.00288 1.95494,1.50074 0.63638,0.49785 1.18407,0.87817 1.21709,0.84515 0.0647,-0.0647 -0.76044,-1.49137 -1.51324,-2.61658 -0.80574,-1.20427 -3.57831,-5.69342 -3.87566,-6.27513 -0.15684,-0.30685 -0.777,-1.320363 -1.37813,-2.252243 -0.60111,-0.93187 -1.35441,-2.16209 -1.67396,-2.73382 -0.31958,-0.57172 -0.7885,-1.35134 -1.04204,-1.73249 -0.25356,-0.38115 -0.64867,-1.04382 -0.87804,-1.47261 -0.22938,-0.42879 -0.60406,-1.03512 -0.83264,-1.3474 -0.22855,-0.31228 -0.38521,-0.59306 -0.34809,-0.62396 0.23685,-0.19725 1.27428,-0.43184 1.35532,-0.30648 0.054,0.0835 0.52281,0.78609 1.04184,1.56132 l 0.94371,1.40951 h 1.15173 c 1.36133,0 1.17599,-0.16314 3.14931,2.77199 0.80079,1.19109 1.85451,2.71135 2.34161,3.37835 0.48708,0.667013 1.18391,1.690193 1.5485,2.273743 0.98548,1.57738 1.89572,2.90029 3.30753,4.80707 0.6964,0.94056 1.38957,1.95406 1.54039,2.25224 0.15083,0.29817 0.50042,0.85399 0.77689,1.23513 0.88507,1.22019 1.70814,2.49919 1.70814,2.65434 0,0.0828 0.14816,0.28464 0.32923,0.44851 0.55582,0.50301 0.57428,0.96262 0.0469,1.1655 -0.42603,0.16386 -4.54159,1.25383 -6.7863,1.79728 -0.52406,0.12688 -1.92739,0.51396 -3.11847,0.86017 -1.19109,0.34621 -3.52994,0.97225 -5.19748,1.39123 -1.66751,0.41898 -3.69453,0.9638 -4.50447,1.2107 -0.80993,0.24692 -2.13528,0.59905 -2.94522,0.78252 -0.80994,0.18348 -2.330191,0.57171 -3.378351,0.86273 -1.048149,0.29102 -3.581914,0.95717 -5.630578,1.48032 -2.048677,0.52316 -4.660412,1.22173 -5.80385,1.55238 -1.14345,0.33065 -3.209434,0.87531 -4.591096,1.21036 -1.381661,0.33506 -3.213773,0.80589 -4.071354,1.04631 -0.857583,0.24042 -1.814516,0.48488 -2.126509,0.54325 -0.311993,0.0584 -0.608956,0.17359 -0.659909,0.25604 -0.05094,0.0824 -0.230337,0.14989 -0.398616,0.14989 -0.172341,0 -0.602981,0.41401 -0.985963,0.94789 -0.548431,0.7645 -0.920395,1.06591 -1.922786,1.55799 -2.009434,0.98645 -2.937586,1.17597 -6.033646,1.23203 -2.1589,0.0391 -3.066783,-0.0169 -4.104882,-0.25312 z m 7.396609,-1.60665 c 2.087716,-0.41555 2.787205,-0.82982 3.680508,-2.17975 0.60678,-0.91696 0.736029,-1.01578 1.608137,-1.2295 0.521578,-0.12782 1.883869,-0.49698 3.027307,-0.82039 1.143438,-0.32339 3.014529,-0.81729 4.15798,-1.09755 1.143437,-0.28026 2.312873,-0.59972 2.598729,-0.70992 0.285857,-0.11018 1.299366,-0.37951 2.252236,-0.59846 1.996857,-0.45883 5.781173,-1.46709 7.796203,-2.07713 0.762305,-0.23078 2.399511,-0.66625 3.638238,-0.96769 1.238725,-0.30145 3.304708,-0.84263 4.591078,-1.20262 1.28637,-0.36 3.15746,-0.87069 4.15798,-1.13486 5.34926,-1.41241 7.01441,-1.85363 10.65481,-2.82322 2.1916,-0.58371 4.19183,-1.12178 4.44497,-1.19569 l 0.46022,-0.13439 -1.33455,-1.99237 c -0.73401,-1.0958 -1.9491,-2.88893 -2.70021,-3.98473 -0.75111,-1.0958 -1.70022,-2.49911 -2.10917,-3.11848 -2.34383,-3.54987 -6.30713,-9.253973 -6.52692,-9.393763 -0.28454,-0.18098 -0.63691,-0.16643 -0.63691,0.0263 0,0.0887 0.16253,0.42002 0.36117,0.73631 0.19866,0.31629 0.9751,1.5496 1.72543,2.74069 0.75034,1.19108 1.57333,2.555403 1.82887,3.031853 0.25554,0.47643 0.83253,1.41197 1.28219,2.07898 0.44967,0.667 1.28451,1.99235 1.85523,2.94523 0.57072,0.95287 1.63728,2.69996 2.37012,3.88243 0.73285,1.18245 1.27083,2.20662 1.1955,2.27592 -0.17506,0.16106 -2.8424,0.91034 -4.64142,1.30382 -0.7623,0.16673 -1.46395,0.35687 -1.55925,0.42252 -0.17799,0.12265 -2.50522,0.75605 -5.11084,1.39103 -0.80994,0.19738 -2.40817,0.61927 -3.55161,0.93753 -1.14343,0.31827 -3.63822,0.98212 -5.543943,1.47525 -1.905745,0.49311 -3.932763,1.04389 -4.504476,1.22397 -0.571725,0.18006 -2.130973,0.60282 -3.46499,0.93944 -1.334004,0.33663 -3.283064,0.8506 -4.331213,1.14217 -1.048161,0.29155 -3.971739,1.06485 -6.49685,1.71844 -8.172067,2.11521 -8.144622,2.10495 -8.735289,3.27057 -0.389351,0.76833 -0.540851,0.89418 -1.574439,1.30795 -2.939038,1.17658 -7.632639,1.00607 -9.979106,-0.36254 -0.294091,-0.17153 -0.717633,-0.6709 -0.941208,-1.10973 -0.265457,-0.52102 -0.575202,-0.85861 -0.892722,-0.97297 -0.958527,-0.34522 -3.150547,-0.9504 -7.156302,-1.97576 -4.753405,-1.21673 -5.287453,-1.35823 -7.36309,-1.9507 -0.857577,-0.24481 -2.065989,-0.57497 -2.685358,-0.73371 -0.619361,-0.15874 -1.944715,-0.52078 -2.94523,-0.80454 -1.000512,-0.28376 -3.10549,-0.85068 -4.677723,-1.25981 -1.572238,-0.40914 -4.573773,-1.20716 -6.670088,-1.77338 -2.096315,-0.56622 -4.396193,-1.16167 -5.110848,-1.32323 -0.714647,-0.16157 -2.040007,-0.51846 -2.945228,-0.7931 -0.905227,-0.27465 -2.930188,-0.81814 -4.499913,-1.20777 -1.569718,-0.38962 -2.909221,-0.76503 -2.976672,-0.83425 -0.122068,-0.12526 0.521724,-1.31235 1.730864,-3.19148 0.349178,-0.54266 1.219591,-1.93628 1.934238,-3.09694 0.714655,-1.16065 2.429817,-3.88784 3.811483,-6.0604 2.329528,-3.663033 3.101877,-4.903053 3.258649,-5.231843 0.03405,-0.0715 -0.134227,-0.12994 -0.374009,-0.12994 -0.564121,0 -1.468087,1.13743 -3.924134,4.9376 -0.683925,1.058203 -2.326771,3.512203 -2.609605,3.898093 -0.870968,1.1883 -6.4288019,9.55512 -6.3749371,9.5969 0.034252,0.0265 0.8418351,0.26211 1.7947061,0.5235 0.952871,0.26139 1.966376,0.54506 2.252236,0.63038 0.285859,0.0853 0.987522,0.27083 1.55924,0.41224 0.571726,0.1414 2.208928,0.56741 3.638231,0.94669 1.429302,0.37927 3.06651,0.81371 3.638229,0.96539 0.571718,0.1517 1.54625,0.42523 2.165611,0.60788 0.619369,0.18262 2.100643,0.58033 3.291729,0.88379 1.191088,0.30344 3.179124,0.8252 4.417854,1.15947 1.23873,0.33427 3.538609,0.94258 5.110847,1.35183 1.572232,0.40925 4.144979,1.08858 5.717217,1.50965 1.572234,0.42106 3.209435,0.85615 3.638231,0.96687 2.291384,0.59167 5.014852,1.31397 7.016581,1.86089 1.23873,0.33846 2.564084,0.69448 2.945229,0.79116 1.403824,0.3561 1.790326,0.61567 2.202948,1.47951 0.306912,0.64251 0.587788,0.93213 1.250759,1.28966 0.759895,0.4098 1.437547,0.58727 4.42912,1.15992 1.085192,0.20773 3.404873,0.0592 5.457345,-0.34924 z m -1.442862,-2.59369 c 1.394366,-0.29903 2.395731,-0.77923 2.395731,-1.14884 0,-0.42492 -2.161417,-1.50922 -3.576962,-1.79443 -1.442596,-0.29067 -3.038257,0.002 -4.652185,0.85352 -1.440087,0.75973 -1.59623,1.11646 -0.661203,1.51057 1.738447,0.73274 4.592001,0.98722 6.494619,0.57918 z m -6.851328,-3.10936 c 0.725067,-0.44813 0.651212,-0.62173 -0.841422,-1.97771 -3.936361,-3.57599 -9.862132,-6.58765 -16.406283,-8.33819 -3.575466,-0.95642 -6.038926,-1.34115 -12.572883,-1.96357 -6.308586,-0.60096 -10.328577,-1.03234 -12.40268,-1.33092 l -2.00774,-0.28902 -1.220041,0.78924 c -0.671026,0.43408 -1.265616,0.86298 -1.321321,0.9531 -0.174085,0.28168 3.626626,0.94641 9.675323,1.6922 2.001029,0.24672 4.417854,0.55598 5.370725,0.68724 0.952864,0.13125 3.057842,0.36688 4.677723,0.52361 9.626377,0.93141 18.751754,3.9653 24.298167,8.07836 0.881406,0.65363 1.602556,1.26652 1.602556,1.362 0,0.28374 0.525235,0.19846 1.147876,-0.18634 z m 10.810481,-0.37637 c 3.920056,-3.52112 11.722398,-6.62983 20.52582,-8.17818 0.857595,-0.15083 3.898108,-0.54476 6.756721,-0.87541 9.101704,-1.05278 16.923444,-2.16918 17.558194,-2.50609 0.16448,-0.0873 -0.0144,-0.30408 -0.60637,-0.73484 -1.01801,-0.74077 -1.92877,-1.21894 -2.10924,-1.10738 -0.12188,0.0753 -7.25511,0.88865 -11.63749,1.32693 -4.634098,0.46348 -9.739816,1.06706 -10.986732,1.29882 -2.31437,0.43019 -5.800906,1.2889 -6.743124,1.66079 -0.491919,0.19416 -1.479115,0.55157 -2.193774,0.79423 -4.100209,1.39224 -8.913001,4.27928 -11.737585,7.04101 l -1.256022,1.22807 0.649652,0.39329 c 0.357305,0.21631 0.719526,0.3937 0.804932,0.39418 0.0854,4.8e-4 0.524161,-0.33045 0.975018,-0.73542 z m -15.943086,-0.82578 c -0.69968,-0.55192 -3.558528,-1.97766 -5.869453,-2.92716 -2.887593,-1.18643 -7.53297,-2.467 -11.662685,-3.21499 -1.513818,-0.2742 -10.319567,-1.31064 -10.967321,-1.29087 -0.548793,0.0168 0.865823,0.48115 2.685359,0.88155 0.905227,0.19921 2.815298,0.6954 4.244601,1.10265 1.429302,0.40725 3.14447,0.8719 3.811482,1.03256 0.667005,0.16065 2.148286,0.54957 3.291728,0.86424 1.143444,0.31469 2.27389,0.61195 2.512113,0.66059 0.238216,0.0487 1.017834,0.25892 1.732488,0.46732 0.714655,0.20838 2.624724,0.73153 4.2446,1.16257 1.619882,0.43103 3.607912,0.96608 4.417854,1.18902 1.83935,0.50626 2.126009,0.5196 1.559234,0.0726 z m 7.955274,0.0738 c 0.349119,-0.34424 -2.948337,-3.85002 -5.326202,-5.66271 -3.802846,-2.89897 -9.48807,-5.52029 -14.496625,-6.68405 -4.645965,-1.07951 -6.024769,-1.29177 -10.828064,-1.667 -1.858098,-0.14516 -5.59498,-0.45377 -8.304193,-0.6858 l -4.925834,-0.42194 -1.007946,0.70704 c -0.554367,0.38887 -1.007939,0.76407 -1.007939,0.83379 0,0.19028 1.794753,0.40285 12.387305,1.46713 7.765621,0.78025 9.532898,1.02576 12.009147,1.66833 1.113212,0.28889 2.606777,0.67719 3.319035,0.8629 2.699194,0.70378 7.54507,2.84418 10.226042,4.51678 2.584506,1.61242 3.490146,2.29493 5.135644,3.87037 1.45158,1.38977 1.567189,1.46364 2.140814,1.36783 0.3335,-0.0558 0.63897,-0.13343 0.678816,-0.17272 z m 5.991268,-1.03667 c 2.888464,-2.73057 7.695281,-5.71653 11.305596,-7.02298 0.547298,-0.19803 1.599585,-0.58766 2.338432,-0.8658 2.843997,-1.0707 7.895341,-2.14729 12.083444,-2.57536 1.000516,-0.10222 4.119007,-0.42006 6.929957,-0.70621 6.81885,-0.69414 10.57244,-1.15058 10.72618,-1.30432 0.082,-0.0821 -0.18462,-0.29827 -1.42355,-1.1541 -0.5374,-0.37122 -0.82375,-0.45592 -1.31339,-0.38848 -1.65929,0.22851 -8.4331,0.81113 -13.100078,1.12676 -9.43961,0.63839 -18.945341,3.76752 -24.659876,8.11763 -2.296544,1.74821 -5.789937,5.428 -5.453788,5.7448 0.132046,0.12443 0.607883,0.27514 1.007834,0.3192 0.09529,0.0105 0.796941,-0.57052 1.559239,-1.29114 z m 8.123858,0.54849 c 3.831105,-1.04844 7.264753,-1.95706 9.634163,-2.5494 1.095806,-0.27395 2.810969,-0.7288 3.811473,-1.01079 1.000516,-0.28198 2.364857,-0.6359 3.031859,-0.78649 0.667016,-0.15058 1.953387,-0.49834 2.858614,-0.77281 0.905226,-0.27447 2.835072,-0.79089 4.288532,-1.1476 1.45348,-0.35672 2.6177,-0.67357 2.58715,-0.70412 -0.15554,-0.15554 -9.996002,1.06012 -12.853471,1.58787 -2.518395,0.46513 -8.546307,2.13866 -9.571111,2.65723 -0.357436,0.18086 -1.19561,0.52711 -1.862625,0.76942 -1.861255,0.67615 -5.583474,2.72045 -4.953338,2.72045 0.13086,0 1.493806,-0.34369 3.028754,-0.76376 z M 27.35264,115.21907 c 0,-0.0477 -0.03897,-0.0866 -0.08662,-0.0866 -0.04767,0 -0.08663,0.039 -0.08663,0.0866 0,0.0477 0.03897,0.0866 0.08663,0.0866 0.04767,0 0.08662,-0.039 0.08662,-0.0866 z m -11.602922,-5.57205 c 0.857656,-0.57647 3.602425,-2.67113 3.771181,-2.87797 0.201474,-0.24696 7.658487,-14.947613 7.658487,-15.097853 0,-0.0553 -0.147297,-0.10066 -0.327327,-0.10066 -0.382704,0 -1.578034,1.82084 -6.425914,9.788563 -0.695717,1.14344 -1.516981,2.4688 -1.825038,2.94523 -1.594521,2.4661 -3.505246,5.63059 -3.399758,5.63059 0.06601,0 0.312772,-0.12956 0.548369,-0.2879 z m 46.300221,5.36106 c -4.948006,-4.29587 -9.771128,-6.6482 -17.834295,-8.69814 -2.120044,-0.53899 -6.79647,-1.17488 -10.885916,-1.48021 -5.48811,-0.40979 -8.135595,-0.63804 -8.207421,-0.70763 -0.03561,-0.0345 -0.01473,-0.19286 0.0463,-0.35196 0.09064,-0.23619 0.261475,-0.26979 0.930961,-0.18314 0.450981,0.0583 3.002897,0.26513 5.67093,0.45948 8.208684,0.59793 10.733886,0.99094 15.592411,2.42675 4.69767,1.38828 9.89457,3.87012 12.820424,6.12253 1.665508,1.28214 3.551605,2.96209 3.551605,3.1634 0,0.53361 -0.421873,0.34555 -1.684989,-0.75108 z m 6.734766,0.93474 c -0.210963,-0.2542 0.368712,-0.87144 2.447953,-2.6066 2.473658,-2.06432 6.857497,-4.47741 10.693407,-5.88626 5.179688,-1.90236 9.826629,-2.74944 18.710905,-3.41079 2.52508,-0.18796 5.03936,-0.39068 5.58726,-0.45048 0.93487,-0.10201 0.99617,-0.0861 0.99617,0.26015 0,0.24985 -0.10867,0.36888 -0.33685,0.36888 -0.18527,0 -1.60807,0.11163 -3.16178,0.24806 -1.55373,0.13642 -3.994364,0.33766 -5.423674,0.44719 -3.003334,0.23016 -7.218077,0.75341 -9.095569,1.12919 -0.71466,0.14304 -2.474222,0.60991 -3.910144,1.03748 -6.429686,1.91455 -10.807927,4.24696 -15.169808,8.08138 -0.910633,0.80051 -1.187882,0.96252 -1.33787,0.7818 z m -6.096907,-4.20003 c -0.857439,-0.91899 -5.377946,-4.23335 -5.773949,-4.23335 -0.04969,0 -0.564895,-0.27815 -1.144944,-0.6181 -0.580039,-0.33995 -1.990066,-1.00261 -3.133391,-1.47259 -5.659989,-2.32657 -10.678594,-3.34923 -19.99878,-4.07516 -3.144471,-0.24491 -5.791282,-0.51702 -5.881802,-0.6047 -0.103741,-0.10044 -0.096,-0.22799 0.02096,-0.34493 0.131399,-0.13139 0.785917,-0.1327 2.243573,-0.004 1.131932,0.0996 3.305446,0.26595 4.830037,0.36974 4.983599,0.33929 10.403341,1.15972 13.039426,1.97391 0.737133,0.22766 1.794138,0.54171 2.348897,0.69786 2.518116,0.7088 7.023811,2.79312 9.472912,4.38212 1.900724,1.23322 5.061193,3.82994 4.975329,4.08786 -0.123551,0.37109 -0.570514,0.30027 -0.998242,-0.15816 z m 6.07135,0.19602 c 0,-0.1366 0.52624,-0.72412 1.169431,-1.30559 3.596227,-3.25121 8.446388,-5.80064 14.364746,-7.55067 3.525629,-1.0425 4.458753,-1.20953 4.926585,-0.88185 0.34174,0.23936 0.306093,0.26411 -0.650853,0.45192 -1.682913,0.33031 -5.942407,1.58917 -7.509239,2.21929 -0.809925,0.32575 -1.823446,0.7339 -2.252237,0.907 -0.949852,0.3835 -4.133691,2.15421 -5.299806,2.94754 -1.220653,0.83043 -3.565342,2.6666 -3.95255,3.09531 -0.379211,0.41986 -0.796077,0.48115 -0.796077,0.11705 z m -6.496837,-4.52097 c -0.57172,-0.51939 -1.351343,-1.15836 -1.73249,-1.41995 -0.381145,-0.26159 -1.082809,-0.76215 -1.55924,-1.11234 -1.547652,-1.13755 -6.058611,-3.28855 -8.465398,-4.03662 -0.532908,-0.16563 0.0059,-0.66682 0.569714,-0.5301 0.933562,0.22633 4.935434,2.03274 6.484453,2.92703 2.866358,1.65482 6.267125,4.29487 6.098494,4.73432 -0.0529,0.13783 -0.09617,0.2832 -0.09617,0.32305 0,0.21246 -0.363702,-0.0353 -1.29937,-0.88539 z m 6.398049,0.76492 c -0.282828,-0.45762 3.86281,-3.73236 6.762993,-5.34225 1.592504,-0.88399 4.806592,-2.2223 7.140294,-2.973133 2.284965,-0.73516 5.932044,-1.61172 6.081985,-1.46178 0.258234,0.25823 -0.592907,0.74833 -1.632162,0.93982 -1.828301,0.33688 -6.036012,1.697743 -8.205889,2.653963 -3.412578,1.50386 -5.653645,2.88757 -8.423727,5.20109 -0.773934,0.64637 -1.451498,1.17522 -1.505702,1.17522 -0.05423,0 -0.152208,-0.0868 -0.217792,-0.19293 z m -5.978036,-4.06637 c -1.248159,-1.33078 -5.12814,-3.90294 -7.587861,-5.030203 -1.067015,-0.489 -1.243124,-0.62669 -1.069386,-0.83603 0.220405,-0.26557 0.280719,-0.25229 1.740398,0.38322 2.450515,1.06689 7.969452,5.012093 7.969452,5.696943 0,0.38684 -0.60434,0.26401 -1.052603,-0.21393 z m 6.019072,0.33232 c -0.233856,-0.23385 -0.08952,-0.41025 1.13978,-1.39305 2.94794,-2.35678 4.711389,-3.451043 7.840287,-4.865073 3.638904,-1.6445 7.563538,-2.75151 12.387312,-3.49404 1.286372,-0.19802 2.55023,-0.3951 2.808579,-0.43797 0.501151,-0.0832 0.804892,0.178 0.528482,0.45441 -0.09182,0.0919 -0.975298,0.28046 -1.963198,0.41909 -2.047946,0.2874 -4.956394,0.8333 -6.484713,1.21716 -3.17921,0.7985 -7.803095,2.6697 -10.561903,4.274203 -1.314811,0.76467 -4.303246,2.96936 -4.840797,3.57124 -0.333611,0.37354 -0.642435,0.46542 -0.853829,0.25403 z m 26.665651,-0.93873 c -0.247356,-0.29398 -0.536407,-0.87869 -0.642337,-1.29937 -0.21903,-0.86984 -0.387851,-0.92295 -1.192391,-0.37507 -0.568857,0.38738 -0.751488,0.62537 -0.936369,1.22021 -0.263455,0.84768 -1.314434,-0.78875 -1.314434,-2.04665 0,-0.40822 -0.08025,-0.60286 -0.2486,-0.60286 -0.470964,0 -1.151664,0.34405 -1.56667,0.79185 l -0.416024,0.44888 -0.119489,-0.63707 c -0.335161,-1.786523 1.719251,-4.711263 3.540683,-5.040653 1.37682,-0.24899 2.027383,-0.87269 1.828603,-1.7531 -0.19556,-0.86622 -1.147161,-3.41372 -1.483253,-3.97081 -0.417773,-0.69248 -1.416452,-1.09936 -2.70817,-1.10336 -1.928005,-0.006 -3.991196,-0.31615 -5.094813,-0.76594 -0.981787,-0.40013 -1.113301,-0.41775 -1.268587,-0.16992 -0.09534,0.15207 -0.634966,0.99077 -1.199283,1.86377 -0.56433,0.87301 -1.366229,2.36383 -1.782001,3.31296 -0.41576,0.94913 -0.878034,1.8606 -1.027257,2.02548 -0.435407,0.48112 -4.036288,2.22174 -4.811547,2.32584 -1.271984,0.17081 -1.421735,0.23174 -1.658966,0.67504 -0.128872,0.24078 -0.303075,0.43779 -0.38712,0.43779 -0.21225,0 -0.65489,-1.10868 -0.65489,-1.6403 0,-0.59669 -0.455528,-0.57304 -1.34284,0.0697 l -0.701834,0.50841 -0.107616,-0.57366 c -0.05919,-0.31551 -0.02574,-0.78899 0.07431,-1.05218 0.236507,-0.62206 0.144777,-0.68801 -0.496049,-0.35662 -0.289985,0.14995 -0.580137,0.27264 -0.644785,0.27264 -0.172619,0 0.08554,-1.72536 0.327141,-2.18648 0.283888,-0.54182 1.98177,-1.9691 2.701231,-2.27072 0.474551,-0.19894 0.799914,-0.2103 1.672299,-0.0584 1.296423,0.22577 1.718559,0.0983 2.455947,-0.74153 0.521288,-0.59372 1.596189,-2.31566 1.826062,-2.92529 0.133412,-0.35382 -0.46972,-0.84751 -2.042061,-1.67153 -1.494208,-0.78307 -2.970216,-1.99582 -3.55901,-2.92426 -0.279736,-0.4411 -0.760489,-1.57043 -1.068336,-2.50963 l -0.559723,-1.70764 -0.676448,0.11429 c -0.372043,0.0629 -1.777011,0.5626 -3.122153,1.11053 -1.34514,0.54794 -3.231766,1.17733 -4.192508,1.39864 l -1.746801,0.40238 -2.089373,3.90965 c -2.835139,5.3051 -3.682325,7.27145 -3.684878,8.55265 -0.0013,0.68821 -0.428952,1.43007 -1.45192,2.51912 -1.123819,1.19641 -2.127561,1.93345 -2.633099,1.93345 -0.552997,0 -1.412592,0.77613 -1.549386,1.398953 -0.09632,0.4385 -0.156602,0.48878 -0.3719,0.3101 -0.386103,-0.32044 -0.924622,-1.463173 -0.924622,-1.962033 0,-0.39643 -0.06734,-0.44002 -0.679703,-0.44002 -0.736661,0 -1.637705,0.59929 -1.834825,1.22035 -0.05913,0.18639 -0.182199,0.33889 -0.273418,0.33889 -0.425018,0 -0.716738,-2.00136 -0.425477,-2.91903 0.104962,-0.33073 0.05304,-0.3727 -0.461207,-0.3727 -0.318724,0 -0.752771,0.12136 -0.964546,0.2697 -0.429188,0.30062 -0.461831,0.22653 -0.38603,-0.87607 0.06188,-0.89967 0.854532,-1.98681 2.147506,-2.94524 0.625111,-0.46336 0.871943,-0.52961 2.275572,-0.61067 2.281073,-0.13174 2.848869,-0.64371 3.645845,-3.28743 0.244161,-0.80994 0.5481,-1.78446 0.675411,-2.16561 0.127313,-0.38115 0.361365,-1.23873 0.520109,-1.90574 0.158742,-0.66701 0.362005,-1.49694 0.4517,-1.84429 0.271284,-1.05061 0.05336,-1.24439 -1.918955,-1.70661 -0.524075,-0.12281 -1.030884,-0.25207 -1.126229,-0.28722 -0.09535,-0.0352 -0.343718,0.3073 -0.55193,0.76099 -0.329109,0.71713 -1.989811,2.82266 -3.520229,4.46312 -2.307756,2.47369 -2.454757,2.7863 -2.221492,4.72396 0.154494,1.28325 0.04577,1.63139 -0.90103,2.88543 -0.658545,0.87224 -2.415215,2.069 -2.667162,1.81705 -0.05167,-0.0517 -0.01728,-0.36113 0.07635,-0.68769 0.210511,-0.73402 0.212802,-1.21346 0.0073,-1.53815 -0.131366,-0.20761 -0.268029,-0.17394 -0.82028,0.20212 -0.828774,0.56437 -2.796347,1.17311 -3.791696,1.17311 -0.520977,0 -0.953473,0.13558 -1.400791,0.43915 -0.582183,0.39507 -0.663208,0.41041 -0.80739,0.15275 -0.08814,-0.1575 -0.123702,-0.66697 -0.079,-1.13214 0.07844,-0.81651 0.06567,-0.84573 -0.36974,-0.84511 -0.24805,3.6e-4 -0.706265,0.15628 -1.018252,0.3465 -0.311985,0.19022 -0.60434,0.34585 -0.649678,0.34585 -0.149923,0 -0.08558,-1.00869 0.09459,-1.48253 0.159843,-0.42042 0.143028,-0.45671 -0.173247,-0.37399 -0.283101,0.074 -0.35027,0.008 -0.35027,-0.34504 0,-0.67052 0.634093,-1.62911 1.546353,-2.33771 1.335071,-1.03701 1.559215,-1.09736 3.128901,-0.84245 1.294093,0.21016 1.415007,0.20197 2.11679,-0.14336 1.013446,-0.49869 1.297098,-0.91711 3.712332,-5.47623 1.823094,-3.44136 1.865466,-3.66756 1.04324,-5.56902 -0.323674,-0.74851 -0.798843,-1.92257 -1.05593,-2.60901 -0.257087,-0.68643 -0.606822,-1.42707 -0.777194,-1.64586 -0.446751,-0.57371 -1.46814,-3.26153 -1.928738,-5.07553 -0.461719,-1.8184 -0.53399,-4.95247 -0.160152,-6.9453 0.403796,-2.15256 1.580916,-5.31836 2.5066,-6.74137 0.309928,-0.47643 0.983024,-1.56791 1.495772,-2.42548 0.512745,-0.85759 0.986769,-1.60033 1.053381,-1.65055 0.346441,-0.26115 1.227866,-2.53824 1.26077,-3.25708 0.07588,-1.65786 -0.104924,-1.74481 -2.912128,-1.40053 -1.679272,0.20596 -2.616722,0.52055 -2.774221,0.93098 -0.05618,0.14648 -0.181929,0.26633 -0.279378,0.26633 -0.09745,0 -0.419555,0.25337 -0.7158,0.56305 -0.471756,0.49317 -0.528358,0.65447 -0.455911,1.29938 l 0.08271,0.7363 h -0.677181 c -0.823718,0 -2.65273,-0.59508 -3.233772,-1.05213 -0.4558,-0.35853 -1.156016,-0.44305 -1.330579,-0.16061 -0.24371,0.39433 -0.426157,0.12576 -1.444868,-2.12694 -0.909935,-2.01214 -0.138602,-4.77568 1.476679,-5.29067 0.480438,-0.15318 1.050953,-0.57874 1.741923,-1.29937 0.886978,-0.92504 1.043435,-1.18866 1.144032,-1.92763 0.07812,-0.57385 0.353637,-1.21996 0.835761,-1.95995 0.685626,-1.05233 1.962361,-2.29485 2.358057,-2.29485 0.250055,0 1.251498,-0.85381 1.251498,-1.067 0,-0.27297 0.955471,-1.58513 1.933322,-2.65505 0.854042,-0.93446 2.353807,-2.04813 4.14875,-3.08072 1.523038,-0.87616 4.16438,-4.16256 5.068285,-6.30603 0.559716,-1.32727 0.723318,-0.96899 0.691534,1.51443 -0.02547,1.98897 -0.03221,2.02003 -0.812369,3.72486 -0.432694,0.94554 -1.029753,2.01152 -1.326802,2.36885 -0.297043,0.35732 -0.462793,0.64968 -0.368332,0.64968 0.790927,0 3.684289,-1.94529 4.988283,-3.35376 0.857755,-0.92648 2.135987,-2.69716 2.135987,-2.9589 0,-0.0508 0.249224,-0.49739 0.553824,-0.99243 l 0.553829,-0.90008 0.145916,0.50767 c 0.203479,0.70793 -0.0117,2.88041 -0.400187,4.04098 -0.178813,0.53414 -0.327033,1.09598 -0.329378,1.24855 -0.0059,0.40415 -0.794841,1.82431 -1.470417,2.64791 -0.321644,0.39211 -1.068331,1.10274 -1.659308,1.57918 -0.59097,0.47643 -1.201479,1.009 -1.356685,1.18349 -0.155209,0.17449 -0.555061,0.45856 -0.888563,0.63126 -0.746623,0.38661 -1.28507,0.95991 -1.132869,1.20618 0.265193,0.4291 1.494567,0.19061 2.695607,-0.52291 0.654609,-0.38889 1.281991,-0.81769 1.394186,-0.95287 0.279959,-0.33733 0.642148,-0.30854 0.722321,0.0574 0.08783,0.40085 -0.488263,2.10152 -0.845633,2.49642 -0.261723,0.2892 -0.258502,0.31913 0.04473,0.41548 0.967597,0.30745 1.981429,0.87904 2.749777,1.55032 0.475069,0.41506 0.817046,0.80136 0.759948,0.85846 -0.05711,0.0571 -0.556994,0.17758 -1.110868,0.26772 -1.049906,0.17088 -1.597573,0.48856 -1.119216,0.64922 0.142929,0.048 0.667214,0.50236 1.165072,1.00967 0.972946,0.9914 1.680811,2.26346 1.864469,3.35052 l 0.11432,0.67666 -1.067847,-0.43132 c -0.587316,-0.23723 -1.115981,-0.38319 -1.174808,-0.32436 -0.05881,0.0589 0.193906,0.69169 0.561641,1.40636 0.874235,1.69904 1.244426,3.63517 0.867524,4.53723 l -0.257114,0.61535 -0.773841,-0.80762 c -1.193896,-1.24603 -1.437789,-1.00344 -0.755632,0.75161 0.444182,1.14278 0.512164,3.99027 0.11344,4.75127 l -0.236096,0.45061 -0.67885,-0.69521 c -0.373366,-0.38235 -0.749509,-0.6952 -0.835871,-0.6952 -0.08637,0 -0.127037,0.56523 -0.09037,1.25606 0.06839,1.28884 0.530938,2.55457 0.985356,2.69635 0.333391,0.10401 2.805456,-2.46834 3.644142,-3.79199 0.387975,-0.61231 0.767771,-1.19125 0.844003,-1.28653 0.491048,-0.6138 1.252776,-2.07216 1.583588,-3.03186 0.605126,-1.75548 0.689327,-4.74008 0.202509,-7.17807 -0.507731,-2.5428 -0.943572,-3.72078 -2.456532,-6.63944 l -1.280194,-2.46969 v -2.1214 c 0,-2.06728 0.01722,-2.16338 0.673821,-3.76726 0.370597,-0.90522 0.732806,-1.71181 0.804899,-1.79242 0.07208,-0.0806 0.185079,0.19226 0.251076,0.60637 0.205103,1.28684 0.624261,2.57216 0.837922,2.56946 0.112344,-0.001 1.022869,-1.30271 2.023383,-2.89173 1.000512,-1.58903 2.052996,-3.18142 2.338855,-3.53864 0.660352,-0.82521 1.060887,-1.40546 2.376103,-3.44224 1.327285,-2.05549 4.007698,-4.76244 6.026476,-6.08615 0.809937,-0.53107 2.408151,-1.57283 3.551601,-2.3150209 1.143438,-0.74219 2.234917,-1.48598 2.425483,-1.65287 0.190579,-0.16689 0.736319,-0.51358 1.212742,-0.77042 0.476448,-0.25684 1.450965,-0.84402 2.165613,-1.30485 0.714659,-0.46083 2.005862,-1.22846 2.86933,-1.70586 0.863479,-0.47739 1.989309,-1.14416 2.501843,-1.4817 1.042324,-0.68646 1.286573,-0.67624 0.728432,0.0305 -0.535728,0.67837 -3.154369,6.03391 -3.154369,6.45123 0,0.10099 -0.163323,0.6684509 -0.362946,1.2609809 -0.209671,0.62236 -0.403534,1.75748 -0.459052,2.68778 -0.08603,1.44208 -0.05333,1.70469 0.312798,2.51211 0.224891,0.49592 0.429595,0.9323 0.454889,0.96971 0.02528,0.0374 0.613094,-0.13472 1.30622,-0.38252 1.307302,-0.4674 5.375059,-1.4879 6.284424,-1.57662 0.285869,-0.0279 0.948545,-0.17509 1.472612,-0.32713 0.52408,-0.15203 1.849444,-0.40212 2.945237,-0.55576 1.095758,-0.15364 2.966854,-0.46744 4.157914,-0.69732 2.62304,-0.50624 12.34218,-1.53353 12.69332,-1.34164 0.25893,0.14149 -0.10264,0.43918 -1.03368,0.85091 -2.44572,1.08161 -7.13535,4.92864 -7.98086,6.54692 -0.16523,0.31625 -0.49134,0.91651 -0.7247,1.33392 -0.36958,0.6611 -0.42509,0.98225 -0.43071,2.49141 -0.005,1.41465 0.061,1.87552 0.36133,2.51211 0.4578,0.97048 1.76545,2.50644 2.96246,3.4797 0.95691,0.77805 1.15001,1.19803 0.55083,1.19803 -0.19729,0 -1.19131,0.27218 -2.20892,0.60485 -3.1259,1.0219 -5.975117,3.15633 -6.820385,5.10932 -0.651431,1.50513 -0.819093,2.80604 -0.564996,4.38412 0.375273,2.33073 0.74867,3.34447 1.800371,4.88775 0.53862,0.79041 0.47216,1.01314 -0.2613,0.87554 -1.127889,-0.2116 -3.95946,-0.25468 -4.926205,-0.075 -1.144167,0.2127 -3.162519,1.26261 -4.34652,2.26098 -0.986592,0.8319 -2.319251,2.76097 -2.788692,4.03671 -0.517364,1.40597 -0.974808,3.69424 -1.090888,5.45693 -0.05937,0.90229 -0.131262,1.66375 -0.159651,1.69214 -0.02842,0.0284 -0.474812,-0.20309 -0.992038,-0.5144 -0.822804,-0.49524 -1.479781,-0.80862 -2.836262,-1.3529 -1.125854,-0.45174 -3.768607,-0.494 -5.327314,-0.0852 -0.889139,0.2332 -2.787448,1.11379 -3.6565,1.6962 -1.238514,0.83 -3.359663,3.41741 -3.119777,3.80555 0.199373,0.32259 1.028375,0.0753 2.417141,-0.72099 1.608994,-0.92258 2.642853,-1.22388 4.194316,-1.22237 1.063077,10e-4 2.287027,0.27179 2.287027,0.50591 0,0.0792 -0.234389,0.24117 -0.520848,0.35983 -0.502762,0.20824 -1.731402,1.33326 -1.731402,1.58537 0,0.30989 0.721905,0.29159 1.743175,-0.0442 1.774228,-0.58335 3.502849,-0.42492 5.42454,0.49716 0.822112,0.39448 1.494749,0.78872 1.494749,0.87608 0,0.0874 -0.537162,0.21178 -1.193686,0.27647 -0.863783,0.0851 -1.279228,0.21214 -1.503177,0.4596 -0.476335,0.52634 -0.108923,0.72406 1.609459,0.86607 2.188919,0.18089 3.309906,0.62782 4.725629,1.88407 l 0.779611,0.6918 -1.00478,0.005 c -0.576404,0.003 -1.235482,0.12447 -1.545903,0.28499 l -0.541136,0.27982 0.418037,0.31533 c 0.22991,0.17342 1.065644,0.47357 1.857179,0.667 0.791523,0.19342 1.688875,0.52392 1.994127,0.73443 1.026061,0.70766 2.37409,1.9066 2.37409,2.11153 0,0.1359 -0.398654,0.20316 -1.204075,0.20316 -1.464551,0 -1.889089,0.27229 -1.221408,0.78337 0.238211,0.18235 0.861908,0.42469 1.385988,0.53854 0.52408,0.11385 1.075958,0.31128 1.226389,0.43872 0.150431,0.12746 0.373058,0.23174 0.494736,0.23174 0.121628,0 0.440929,0.17541 0.709453,0.38981 0.268524,0.21439 0.806025,0.61916 1.19444,0.89948 0.388417,0.28032 0.706208,0.57267 0.706208,0.64968 0,0.13807 -0.936721,0.20446 -2.035671,0.14429 -0.687894,-0.0377 -0.708988,0.13949 -0.08666,0.72768 0.328684,0.31065 0.79878,0.50471 1.515918,0.6258 1.354041,0.22862 3.338381,0.7852 3.548471,0.99529 0.10474,0.10474 -0.21317,0.31188 -0.868715,0.56608 -0.56863,0.22049 -1.033885,0.47442 -1.033885,0.56429 0,0.66947 2.97193,0.58375 4.3728,-0.12614 0.47252,-0.23943 0.89608,-0.39836 0.94128,-0.35316 0.0877,0.0878 -0.28516,0.81732 -0.74496,1.45705 -0.26691,0.37134 -0.26195,0.38981 0.10463,0.38981 0.89126,0 1.46514,-0.48423 2.04245,-1.72334 0.30816,-0.66144 0.56028,-1.31929 0.56028,-1.46189 0,-0.14262 0.0697,-0.30238 0.1549,-0.35503 0.16656,-0.10294 0.70761,1.10021 0.71711,1.59471 0.005,0.24855 0.0639,0.2299 0.3465,-0.10931 0.38352,-0.46038 0.45738,-1.60099 0.15504,-2.39502 -0.10211,-0.26824 -0.25268,-0.83854 -0.33452,-1.26734 -0.0819,-0.42878 -0.20647,-0.92893 -0.27694,-1.11144 -0.10285,-0.26633 0.0316,-0.22195 0.681,0.22489 0.89526,0.61595 0.99277,0.50409 0.53015,-0.60821 -0.39163,-0.94157 -2.11808,-3.52945 -2.35459,-3.52945 -0.10791,0 -0.15498,-0.0412 -0.10463,-0.0915 0.0503,-0.0503 0.29719,-0.0132 0.54862,0.0823 0.25144,0.0956 0.45715,0.12675 0.45715,0.0692 0,-0.0903 -0.71361,-1.34632 -1.21539,-2.1391 -0.0905,-0.14294 -0.46966,-0.92256 -0.84264,-1.7325 -0.8295,-1.80122 -1.08317,-3.10478 -1.0704,-5.50065 0.004,-0.69083 -0.0645,-1.25606 -0.15163,-1.25606 -0.1837,0 -1.0304,0.6645 -1.9607,1.53877 -0.74974,0.70457 -0.75203,0.69727 -0.31257,-0.99485 0.51065,-1.9663 1.56358,-4.60917 2.17015,-5.44711 2.40112,-3.31702 5.61163,-5.83433 8.97696,-7.03866 0.55148,-0.19736 1.08237,-0.35883 1.17977,-0.35883 0.0974,0 -0.37603,0.67114 -1.05207,1.49142 -1.47571,1.79059 -2.73435,4.27483 -2.96158,5.84545 -0.30565,2.11255 -0.16726,6.08531 0.28055,8.05371 0.0867,0.38095 0.0707,0.38958 -0.2741,0.14808 -0.36103,-0.25286 -1.65893,-1.70897 -2.15646,-2.41929 -0.39071,-0.5578 -0.50653,-0.23552 -0.2946,0.81973 0.31534,1.57018 1.2194,3.17351 4.00948,7.11066 1.00675,1.42063 2.35233,4.54463 2.64909,6.15034 0.76577,4.14313 -1.09884,9.08909 -4.44827,11.79924 -2.39777,1.94013 -4.96732,2.81231 -8.01639,2.72102 l -1.80223,-0.054 0.105654,0.43312 c 0.0581,0.23822 0.500031,1.32625 0.982111,2.41785 0.814925,1.84523 0.869245,2.05426 0.773135,2.97393 -0.24339,2.32857 -1.441254,4.193823 -3.400565,5.295213 -0.874561,0.49161 -1.215672,0.97099 -1.215672,1.70845 0,0.56742 -0.222641,0.53556 -0.765436,-0.10952 z m 1.109917,-3.10751 c -0.107037,-0.20008 -0.285693,-0.33345 -0.39693,-0.29637 -0.265493,0.0885 -0.541841,1.06873 -0.40317,1.43009 0.09031,0.2352 0.183699,0.19399 0.551726,-0.24339 0.369775,-0.43944 0.410867,-0.58672 0.248374,-0.89033 z m -2.952795,-0.27821 c 0.005,-0.10743 -0.115843,-0.299403 -0.26904,-0.426573 -0.236728,-0.19647 -0.314874,-0.18166 -0.519741,0.0985 -0.132621,0.18136 -0.24113,0.554673 -0.24113,0.829573 v 0.4998 l 0.510156,-0.40298 c 0.280587,-0.22164 0.514484,-0.49089 0.519755,-0.59834 z m 4.8909,-0.888963 c 0.350205,-0.54707 0.762908,-1.48687 0.917137,-2.08844 l 0.280423,-1.09376 -0.692623,-1.50497 c -0.851255,-1.84964 -1.399459,-3.27821 -2.356103,-6.13979 -0.98126,-2.93522 -1.011938,-2.9762 -2.400454,-3.20628 -3.054941,-0.50622 -4.974028,-2.27198 -5.475632,-5.03814 -0.107666,-0.59371 -0.464436,-1.95381 -0.792856,-3.02244 -0.820803,-2.67086 -0.775926,-3.13453 0.192303,-1.98628 0.612552,0.72646 0.823759,1.24776 1.469757,3.62768 0.592667,2.18347 1.06758,3.12377 1.98419,3.92857 0.81215,0.71308 1.661091,1.06354 2.994617,1.23625 1.380341,0.17878 1.886623,0.51514 2.351211,1.56208 0.349047,0.78655 0.439796,0.86082 1.497692,1.22579 1.532471,0.52871 4.451539,0.64842 6.149199,0.2522 1.31805,-0.30762 3.05027,-1.17801 4.18572,-2.10318 0.84212,-0.68616 2.1835,-2.50766 2.69014,-3.65299 0.50433,-1.14015 0.62372,-3.88199 0.23992,-5.51059 -0.41142,-1.74582 -1.85486,-4.3773 -3.99279,-7.27921 -1.00122,-1.35898 -2.23548,-4.047 -2.47483,-5.38981 -0.21775,-1.22158 0.024,-2.94718 0.57623,-4.11354 0.52719,-1.11345 0.76909,-1.23854 0.76909,-0.3977 0,0.68397 0.30024,1.65974 0.61463,1.99753 0.18247,0.19604 0.2252,-0.0793 0.23689,-1.52688 0.007,-0.97134 0.0924,-1.91195 0.18775,-2.09023 0.0955,-0.17828 0.17517,-0.50469 0.17724,-0.72535 0.002,-0.22066 0.27493,-1.17433 0.60635,-2.11927 0.33142,-0.94494 0.57011,-1.75055 0.53042,-1.79024 -0.0397,-0.0397 -0.21509,0.0545 -0.38979,0.2093 -0.17469,0.15481 -0.7854,0.65889 -1.35712,1.12019 -1.10286,0.88984 -2.35356,2.27521 -2.9743,3.29455 -1.12341,1.84477 -1.63607,2.82085 -1.53478,2.92213 0.0625,0.0625 0.34877,-0.0213 0.63621,-0.18633 0.28743,-0.16495 0.69883,-0.29993 0.91421,-0.29993 0.37071,0 0.38439,0.0439 0.25617,0.82293 -0.22279,1.3535 -0.17331,3.926 0.0997,5.18615 0.1407,0.64941 0.56175,1.76547 0.93565,2.48013 1.20363,2.30062 2.64543,4.932 2.8136,5.13501 0.67989,0.8208 0.92419,5.85921 0.34893,7.19636 -0.41659,0.96833 -1.61002,2.47142 -2.22618,2.80385 -1.66587,0.89875 -1.63063,0.89049 -3.77371,0.88439 -1.94954,-0.005 -2.15732,-0.0402 -3.337333,-0.55632 -1.529438,-0.66897 -2.477442,-1.30805 -4.012126,-2.70471 -1.150934,-1.04743 -3.829596,-4.05285 -5.110295,-5.73368 -0.908044,-1.19173 -3.773864,-4.42617 -3.921754,-4.42617 -0.06691,0 -0.668915,-0.50675 -1.337891,-1.12612 -0.668978,-0.61936 -1.266512,-1.12612 -1.327854,-1.12612 -0.06137,0 -0.543236,-0.3189 -1.070852,-0.70868 -1.952116,-1.44211 -4.157059,-2.25723 -7.015057,-2.59333 -1.934683,-0.22751 -5.249742,-0.16129 -5.52073,0.11029 -0.150755,0.15108 -0.314016,1.3963 -0.344648,2.62866 -0.01277,0.51464 -0.52144,0.15118 -0.796547,-0.56918 -0.283169,-0.74145 -0.283601,-0.86957 -0.0077,-2.27358 0.386424,-1.96669 0.508994,-2.19957 2.399071,-4.55824 1.367779,-1.70689 4.065308,-3.3951 6.095658,-3.81489 2.224477,-0.45992 5.512095,-0.24343 6.890562,0.45375 0.672146,0.33995 0.727313,0.0673 0.238979,-1.18129 -0.235231,-0.60146 -0.516873,-1.44035 -0.625873,-1.86422 -0.10905,-0.42386 -0.54184,-1.53531 -0.961877,-2.46989 -0.420036,-0.93457 -0.763701,-1.79839 -0.763701,-1.91958 0,-0.85749 -2.401572,-4.70216 -4.135702,-6.6208 -2.574417,-2.84836 -7.944146,-8.16141 -8.095498,-8.01005 -0.126513,0.12651 0.337609,1.65048 0.755914,2.4821 0.18728,0.37234 0.395571,0.98882 0.462859,1.36997 0.06729,0.38115 0.579196,2.09631 1.137562,3.81148 1.243948,3.82104 1.550242,5.5028 1.144973,6.28651 -0.153475,0.29679 -0.279053,0.6508 -0.279053,0.78669 0,0.13588 -1.603184,1.83543 -3.562638,3.77677 -5.115782,5.06847 -6.142551,6.12874 -6.492739,6.70458 -0.171308,0.28169 -0.390699,0.56113 -0.487542,0.62099 -0.270034,0.16689 -0.902662,1.97531 -1.085999,3.10444 -0.169317,1.0428 -0.695625,1.88411 -0.935675,1.49571 -0.204756,-0.3313 -0.244215,-1.9228 -0.06766,-2.72871 0.429804,-1.96186 1.617198,-3.57839 5.399906,-7.3515 1.411813,-1.40823 2.591617,-2.56041 2.621783,-2.56041 0.08723,0 3.414268,-3.38623 3.591376,-3.65526 0.225977,-0.34326 0.142713,-2.0044 -0.146792,-2.92821 -0.134429,-0.42878 -0.508693,-1.67618 -0.831757,-2.77198 -0.323066,-1.0958 -0.897089,-2.88893 -1.275602,-3.98473 -1.422517,-4.11816 -1.689636,-5.9281 -1.065527,-7.21985 0.368935,-0.7636 1.646917,-2.07178 2.713179,-2.77728 0.370014,-0.24481 0.7897,-0.57605 0.932634,-0.73607 0.142922,-0.16002 1.156431,-0.9975 2.252236,-1.86107 3.811334,-3.0036 8.845233,-6.34434 11.434428,-7.58843 0.71466,-0.34339 1.572241,-0.77066 1.905743,-0.94951 0.719011,-0.38559 2.629985,-1.08776 4.040866,-1.48478 0.554958,-0.15616 0.979183,-0.31377 0.942708,-0.35024 -0.118484,-0.11846 -2.270877,0.28026 -3.337728,0.61829 -4.97633,1.57672 -8.021384,3.1385 -14.293054,7.33072 -2.423106,1.6197 -5.465452,3.79613 -5.973053,4.273 -0.416102,0.39091 -1.339652,0.46768 -1.608675,0.13372 -0.09595,-0.11911 -0.229547,-0.47406 -0.296874,-0.7888 -0.161408,-0.75455 -0.466807,-0.62463 -0.763961,0.32502 -0.132002,0.42183 -0.472916,1.41997 -0.757596,2.21809 -0.437243,1.22581 -0.499901,1.60179 -0.403547,2.4216 0.06273,0.53376 0.258213,1.21479 0.434402,1.5134 0.479483,0.81267 1.761933,3.68698 2.041566,4.5757 0.799234,2.5401 0.944339,5.59645 0.386941,8.15035 -0.398276,1.82481 -0.790494,2.82171 -1.450755,3.68736 -0.244279,0.32027 -0.444144,0.65516 -0.444144,0.7442 0,0.22919 -1.956161,2.10287 -3.291727,3.15294 -0.619361,0.48697 -1.370705,1.08292 -1.66964,1.32435 -0.298941,0.24142 -0.598355,0.43895 -0.665367,0.43895 -0.160165,0 -1.931398,1.50276 -2.552507,2.16562 -0.267858,0.28585 -0.813202,1.19064 -1.211884,2.01061 -0.596508,1.22688 -0.78354,1.47554 -1.056184,1.40424 -0.278002,-0.0727 -0.312896,-0.18717 -0.21683,-0.71125 0.358214,-1.95423 0.364794,-1.90159 -0.271133,-2.16901 -0.76922,-0.32349 -1.411427,-1.02679 -1.911943,-2.09384 -0.571593,-1.21858 -0.581233,-4.18331 -0.02057,-6.32359 0.653142,-2.49327 0.988884,-6.44705 0.66263,-7.80336 -0.05637,-0.23428 -0.130691,-0.73873 -0.165186,-1.12101 -0.07835,-0.86814 -0.937032,-2.75021 -1.614323,-3.53827 l -0.511445,-0.59509 -0.540798,0.38509 c -0.297436,0.21179 -0.953408,0.56963 -1.457715,0.79521 -0.576623,0.25791 -0.820469,0.44383 -0.657038,0.50095 0.14293,0.05 0.98265,0.30583 1.866046,0.56862 0.883404,0.26279 1.578814,0.56065 1.54536,0.66192 -0.108282,0.32778 -1.410123,1.13733 -1.716307,1.06728 -0.163491,-0.0374 -0.280438,0.008 -0.25987,0.10024 0.03287,0.14793 -0.496457,0.40792 -1.482283,0.72804 -0.27662,0.0898 -0.250959,0.19843 0.259877,1.09985 0.553175,0.97615 0.566794,1.05015 0.566794,3.07917 0,1.81029 -0.06417,2.28052 -0.496587,3.63823 -0.61508,1.93131 -0.84213,2.53876 -1.683673,4.50447 -1.979897,4.62479 -2.183409,10.41184 -0.485435,13.80399 0.270785,0.54096 0.565569,1.02883 0.655087,1.08416 0.08951,0.0553 0.292676,-0.29057 0.451471,-0.76865 0.302164,-0.90974 0.839703,-1.39481 1.174567,-1.05994 0.130632,0.13063 0.125312,0.31472 -0.0182,0.62971 -0.11154,0.24481 -0.252543,1.20409 -0.313334,2.13172 -0.116861,1.78306 0.124596,3.10073 0.765701,4.17857 0.163301,0.27454 0.539962,0.91551 0.837025,1.42438 0.297056,0.50885 0.823305,1.29618 1.169426,1.74962 0.346126,0.45344 0.629322,0.86794 0.629322,0.92112 0,0.0532 0.194907,0.35221 0.433122,0.66453 0.238216,0.31232 0.433124,0.62642 0.433124,0.69801 0,0.0716 0.170916,0.37018 0.379816,0.66355 0.522983,0.73446 0.480952,1.64767 -0.20052,4.35661 -1.158883,4.60674 -2.137991,6.90416 -3.266499,7.66466 -0.657954,0.4434 -1.949135,0.75237 -3.144117,0.75237 -1.299915,0 -1.628867,0.22361 -1.237526,0.84121 0.122685,0.19362 0.227805,0.18307 0.598978,-0.0601 0.603798,-0.39562 3.457826,-0.57977 3.056389,-0.1972 -0.14183,0.13516 -0.695954,0.37014 -1.23139,0.52218 -1.072843,0.30464 -1.597835,0.72134 -1.13336,0.89958 0.149052,0.0572 0.358785,0.36997 0.466067,0.69504 0.20158,0.61078 0.514691,0.80172 0.514691,0.31385 0,-0.6328 2.624266,-2.53855 2.990856,-2.17196 0.142301,0.1423 -0.02116,0.39889 -0.619133,0.97185 -0.878714,0.84195 -0.946191,0.95757 -0.558852,0.95757 0.139493,0 0.449619,0.28842 0.689158,0.64094 l 0.435533,0.64095 1.280866,-1.29063 c 1.255179,-1.26475 1.283224,-1.31229 1.398076,-2.37028 0.202123,-1.86187 0.910596,-3.53592 3.765371,-8.89712 0.841575,-1.58047 1.574996,-3.10073 1.629829,-3.37836 0.06855,-0.34711 -0.115213,-1.1035 -0.588265,-2.42143 -0.7563,-2.10704 -1.107659,-4.00307 -1.001563,-5.40467 0.07392,-0.97637 0.474345,-1.77427 0.890436,-1.77427 0.264534,0 0.277773,0.0958 0.335298,2.42549 0.01526,0.61936 0.08833,1.38177 0.162318,1.69424 0.128406,0.54232 0.163333,0.56324 0.769323,0.46067 1.059308,-0.1793 4.155787,-1.08384 6.265394,-1.83025 1.811614,-0.64096 2.18883,-0.71301 4.157974,-0.79415 1.191086,-0.0491 2.574907,-0.0132 3.075165,0.0799 0.500257,0.093 0.909565,0.13688 0.909565,0.0975 0,-0.0394 -0.118987,-0.30158 -0.264323,-0.58272 -0.360367,-0.69688 -0.0088,-0.68879 0.89017,0.0204 0.94574,0.74646 1.80956,2.12674 2.854149,4.56061 1.612251,3.75649 1.991799,4.3687 3.880825,6.25961 1.145036,1.14618 2.060085,1.89738 2.691807,2.20979 1.091189,0.53963 3.202189,0.99071 4.645457,0.99263 1.469581,0.002 3.153085,0.32097 3.798302,0.71973 0.964543,0.59612 2.639986,4.43694 2.639986,6.05194 0,0.82422 -0.05937,0.95492 -0.744771,1.64035 -0.409635,0.40963 -0.97487,0.79273 -1.25606,0.85133 -1.768505,0.36854 -2.103478,0.59491 -1.610213,1.08817 0.151739,0.15174 0.317099,0.10224 0.680712,-0.20372 0.264172,-0.22227 0.836287,-0.45752 1.271366,-0.52277 0.455293,-0.0683 1.012038,-0.30455 1.311642,-0.55666 0.42337,-0.35623 0.520571,-0.38449 0.520571,-0.15136 0,0.57784 -0.397887,0.99867 -1.336821,1.41392 l -0.960984,0.42499 0.343474,0.38192 c 0.188895,0.21005 0.391611,0.51835 0.450463,0.6851 0.164757,0.466833 0.373197,0.36285 0.615433,-0.30703 0.143941,-0.39808 0.542318,-0.84785 1.145916,-1.29375 0.64455,-0.47617 0.960367,-0.84338 1.040979,-1.21041 0.15921,-0.72485 0.434035,-0.48472 0.434035,0.37923 0,0.60661 -0.101372,0.80296 -0.699667,1.35531 -0.690321,0.6373 -0.694082,0.64733 -0.28114,0.75097 0.2302,0.0578 0.546847,0.30087 0.703667,0.5402 0.156821,0.239343 0.341802,0.434473 0.411069,0.433653 0.0693,-6.6e-4 0.412465,-0.449123 0.762657,-0.996193 z m -7.055595,-0.23451 c 0.214326,-0.20025 -0.153148,-0.58133 -0.408428,-0.42356 -0.103133,0.0637 -0.272486,0.27479 -0.376466,0.46907 -0.170706,0.31896 -0.149778,0.34136 0.215634,0.23076 0.222577,-0.0674 0.478737,-0.1917 0.56926,-0.27627 z m -41.26267,-1.58185 c -0.15152,-0.16743 -0.333752,-0.30442 -0.404948,-0.30442 -0.159548,0 -0.509839,0.97309 -0.509839,1.4163 0,0.27117 0.09874,0.23116 0.59514,-0.24118 0.550864,-0.52414 0.574652,-0.58892 0.319647,-0.8707 z m -3.384173,-0.22186 c 0.395222,-0.19717 0.506245,-0.35126 0.438826,-0.60907 -0.04963,-0.18983 -0.152561,-0.38364 -0.228721,-0.43071 -0.172618,-0.10668 -0.859201,0.74611 -0.859201,1.06721 0,0.29412 0.0052,0.29391 0.649096,-0.0274 z m 27.309526,-0.74144 c 0.04667,-0.0755 0.01799,-0.24549 -0.06377,-0.37774 -0.122885,-0.19887 -0.195849,-0.20126 -0.421696,-0.0138 -0.150192,0.12465 -0.273077,0.37575 -0.273077,0.55801 0,0.27453 0.05786,0.30045 0.336859,0.15111 0.185259,-0.0991 0.37502,-0.24206 0.421684,-0.31756 z m 4.489745,-1.67478 c 0.170869,-0.12519 0.565977,-0.84025 0.877995,-1.58903 0.312018,-0.74877 1.014741,-2.09436 1.561613,-2.9902 0.546858,-0.89584 1.140029,-1.91447 1.318157,-2.26361 l 0.32384,-0.6348 -1.590692,-1.6345 c -1.44874,-1.48864 -2.391687,-2.82042 -3.373147,-4.76415 -0.318849,-0.63145 -0.504459,-0.76304 -1.797749,-1.27445 -1.618516,-0.64 -3.6078,-0.92369 -3.6078,-0.5145 0,0.60403 0.956217,3.01725 1.454325,3.67032 0.682963,0.89542 1.804955,1.75282 3.333854,2.54765 2.626866,1.36561 2.877731,2.14095 1.43674,4.44043 -0.483065,0.77085 -1.227383,1.7438 -1.654035,2.1621 l -0.775737,0.76055 -1.854262,0.005 c -1.82762,0.005 -2.460629,0.12476 -2.460629,0.46497 0,0.10025 0.127764,0.11711 0.303193,0.0401 0.522545,-0.22957 1.479705,-0.27507 2.468801,-0.11735 l 0.952871,0.15194 -0.693001,0.19028 c -0.381146,0.10467 -0.998932,0.25495 -1.372833,0.33397 -0.717551,0.15163 -0.882724,0.33918 -0.638513,0.725 0.121753,0.1923 0.236979,0.17661 0.636363,-0.0866 0.268247,-0.17681 0.921238,-0.40768 1.451104,-0.51305 0.529853,-0.10538 1.099805,-0.25015 1.266549,-0.32172 0.214339,-0.092 0.30319,-0.0514 0.30319,0.13845 0,0.28702 -0.631961,0.80798 -0.980141,0.80798 -0.115464,0 -0.42137,0.0804 -0.679668,0.17855 l -0.469618,0.17855 0.371712,0.39568 c 0.204453,0.21762 0.371725,0.51409 0.371725,0.65882 0,0.14473 0.04365,0.30679 0.09698,0.36014 0.104266,0.10427 2.904171,-1.12965 3.418793,-1.50666 z m -6.620103,0.77442 c 0.08749,0 0.159076,-0.15593 0.159076,-0.3465 0,-0.49608 -0.427113,-0.42774 -0.67092,0.10736 -0.180103,0.39528 -0.170681,0.44001 0.07299,0.3465 0.153879,-0.0591 0.351366,-0.10736 0.438861,-0.10736 z m -26.293467,-0.41201 c 0.05043,-0.13132 0.0078,-0.32258 -0.09462,-0.42501 -0.223222,-0.22322 -0.736853,0.008 -0.886973,0.39908 -0.07652,0.19942 0.02069,0.26469 0.394203,0.26469 0.272679,0 0.537008,-0.10744 0.587395,-0.23876 z m 25.239801,-1.18698 c 0,-0.10141 -0.110081,-0.0846 -0.259876,0.0397 -0.14293,0.11862 -0.25987,0.24266 -0.25987,0.27565 0,0.033 0.116937,0.0151 0.25987,-0.0397 0.142931,-0.0549 0.259876,-0.17888 0.259876,-0.27564 z m -35.94938,0.008 c 0.308168,-0.14041 0.433118,-0.31719 0.397961,-0.56305 -0.07528,-0.52647 -0.44855,-0.4371 -0.854887,0.20467 -0.37958,0.5995 -0.26666,0.68807 0.456926,0.35838 z m 6.902058,-0.1719 c 0.21679,-0.34369 0.03248,-0.83617 -0.312943,-0.83617 -0.18889,0 -0.265311,0.17883 -0.265311,0.62081 0,0.6424 0.250127,0.73555 0.578254,0.21536 z m -3.924305,-0.45111 c 1.101386,-0.39758 1.374417,-0.6162 1.792094,-1.43491 0.296644,-0.58146 0.794959,-0.97964 0.986422,-0.78818 0.04171,0.0417 -0.01441,0.24456 -0.124759,0.45074 -0.274728,0.51334 -0.09434,0.98768 0.262888,0.69122 0.159208,-0.13213 0.524246,-0.17984 0.94464,-0.12345 0.563894,0.0756 0.703281,0.0348 0.78756,-0.23074 0.05631,-0.17745 0.01049,-0.49439 -0.101864,-0.70432 -0.127352,-0.23796 -0.17047,-0.80271 -0.114508,-1.49983 0.106634,-1.32842 0.108232,-1.33082 3.465021,-5.18255 1.329557,-1.5256 2.447195,-2.9677 2.524455,-3.25735 0.13045,-0.48907 0.0899,-0.54774 -0.686996,-0.99417 -0.45409,-0.26093 -1.502476,-0.98493 -2.329743,-1.60886 -1.208812,-0.91171 -1.481236,-1.05667 -1.387546,-0.73832 0.06411,0.21787 0.160052,0.82491 0.213189,1.34899 0.124545,1.22848 -0.150474,1.94837 -2.082433,5.45093 -0.82244,1.49106 -1.495351,2.7665 -1.495351,2.83431 0,0.32926 -1.602714,1.89675 -2.29068,2.24033 -0.902222,0.4506 -1.754921,0.48955 -3.085598,0.14096 -0.825852,-0.21635 -0.997292,-0.21584 -1.337119,0.004 -0.214403,0.13869 -0.389816,0.33357 -0.389816,0.43308 0,0.11292 0.146544,0.12919 0.389816,0.0433 0.214394,-0.0757 0.623696,-0.12278 0.909556,-0.10463 0.285858,0.0181 1.052091,0.0553 1.702739,0.0827 l 1.182994,0.0496 -0.663247,0.29864 c -0.395243,0.17797 -1.102519,0.30048 -1.750344,0.30319 -1.00769,0.004 -1.099519,0.0373 -1.257293,0.4522 -0.259071,0.68141 -0.02678,0.82309 0.551557,0.33644 0.286028,-0.24068 0.650504,-0.44229 0.809947,-0.44801 1.499897,-0.0539 2.069586,-0.11204 2.34572,-0.23944 0.289737,-0.13368 0.302145,-0.10958 0.119402,0.23188 -0.242248,0.45264 -0.847854,0.71097 -1.666765,0.71097 -0.585482,0 -0.778871,0.21247 -0.404169,0.44405 0.105012,0.0649 0.304285,0.3893 0.442835,0.72089 0.183672,0.43958 0.331394,0.57686 0.545382,0.50681 0.161408,-0.0528 0.697826,-0.24205 1.192023,-0.42044 z m -4.623402,-1.07806 c 0,-0.21906 -0.354029,-0.21906 -0.692993,0 -0.202511,0.13087 -0.154704,0.16853 0.216561,0.1706 0.262038,10e-4 0.476432,-0.0753 0.476432,-0.1706 z m -0.692993,-1.29936 c 0,-0.0477 -0.03897,-0.0866 -0.08662,-0.0866 -0.04767,0 -0.08663,0.0389 -0.08663,0.0866 0,0.0477 0.03896,0.0866 0.08663,0.0866 0.04767,0 0.08662,-0.039 0.08662,-0.0866 z m 69.617999,-1.47936 c 0.7895,-0.099 1.94874,-0.3663 2.57608,-0.59402 1.21224,-0.44002 3.90054,-2.1423 3.75502,-2.37774 -0.0477,-0.0771 -0.44411,0.13281 -0.88105,0.46644 -1.84805,1.41109 -5.57956,1.92132 -8.686997,1.18782 -0.604679,-0.14273 -1.131955,-0.22698 -1.1717,-0.18723 -0.03975,0.0397 0.04528,0.35349 0.18883,0.6972 0.266676,0.63825 0.257418,0.63381 1.822423,0.87389 0.782354,0.12001 0.947494,0.11545 2.397394,-0.0664 z m -39.411957,-9.01539 c 1.984648,-0.49777 1.967565,-0.48217 1.595271,-1.457 -0.169546,-0.44397 -0.4857,-1.01348 -0.702557,-1.26559 l -0.394286,-0.4584 -0.92926,0.29077 c -0.511091,0.15992 -1.262585,0.34316 -1.669987,0.4072 -0.647996,0.10185 -0.728314,0.16237 -0.641547,0.48339 0.182362,0.6747 1.011017,2.35933 1.160535,2.35933 0.08121,0 0.793039,-0.16187 1.581831,-0.3597 z m -10.696247,-0.37661 c -0.155568,-0.2144 -0.489057,-0.70166 -0.741082,-1.08281 -0.252026,-0.38115 -0.718231,-1.01198 -1.036018,-1.40185 -0.798914,-0.98013 -1.90043,-3.4062 -2.132537,-4.69685 -0.127306,-0.70791 -0.398014,-1.37879 -0.793486,-1.96646 -0.330137,-0.49059 -0.602494,-0.9816 -0.605232,-1.09114 -0.0026,-0.10954 -0.395256,0.58048 -0.872258,1.53334 -0.533046,1.06483 -1.172273,2.0422 -1.658686,2.53614 -0.590064,0.59918 -0.763665,0.89104 -0.682359,1.14721 0.16715,0.52664 1.633861,1.95549 2.788711,2.71673 0.569768,0.37556 1.191867,0.81564 1.382439,0.97795 0.190573,0.16231 0.970192,0.54338 1.732488,0.84683 0.762299,0.30345 1.541916,0.61821 1.732489,0.69949 0.190579,0.0813 0.531422,0.15305 0.757446,0.1595 0.394771,0.0113 0.399808,-0.004 0.128085,-0.37808 z m 15.528284,-1.37253 c 0.691671,-0.30228 1.318767,-0.60125 1.393551,-0.66438 0.159352,-0.13452 -0.872311,-1.71254 -1.283662,-1.96349 -0.200291,-0.12218 -0.649915,-0.056 -1.559241,0.22957 -0.702789,0.2207 -1.337599,0.45326 -1.4107,0.51678 -0.224676,0.19528 0.963976,2.40588 1.300811,2.41919 0.165913,0.006 0.867576,-0.2354 1.559241,-0.53767 z m 8.479274,-1.54498 c -0.274059,-0.61079 -0.607736,-1.19657 -0.741501,-1.30173 -0.271316,-0.21327 -1.751413,-0.61061 -1.862135,-0.49989 -0.03899,0.039 0.147613,0.57227 0.414603,1.18512 0.470838,1.0808 0.51705,1.12662 1.537866,1.52477 0.578832,0.22577 1.07426,0.36364 1.100937,0.30638 0.02666,-0.0573 -0.175725,-0.60385 -0.44977,-1.21465 z m -3.176393,0.266 c 0.103647,-0.0923 -0.304018,-1.17568 -0.664612,-1.76634 -0.294737,-0.4828 -0.441667,-0.56306 -1.030752,-0.56306 -0.866411,0 -2.436559,0.33051 -2.436559,0.51289 0,0.0757 0.121426,0.23846 0.269856,0.36164 0.148424,0.12318 0.470988,0.56716 0.716814,0.98663 l 0.446953,0.76267 1.318864,-0.12024 c 0.725377,-0.0661 1.346118,-0.14451 1.379436,-0.17419 z m -29.833407,-4.04916 c 0.660194,-0.40256 1.383415,-1.44599 2.046478,-2.95256 0.776729,-1.76486 0.808245,-2.09997 0.339414,-3.60907 -0.227875,-0.73349 -0.415488,-1.50905 -0.416916,-1.72344 -0.0039,-0.56918 -0.260139,-0.4802 -0.895976,0.31101 -0.850053,1.05779 -2.335336,2.20778 -3.288874,2.54644 -0.813025,0.28877 -0.845921,0.32544 -0.738312,0.82303 0.06194,0.28644 0.249904,0.83265 0.417683,1.2138 0.167786,0.38115 0.472006,1.12403 0.67604,1.65085 0.419714,1.08366 0.984591,2.07433 1.182241,2.07336 0.07287,-3.6e-4 0.378068,-0.1504 0.678222,-0.33342 z m 48.114602,-0.66882 c 0.108546,-0.17566 -1.612893,-0.97105 -1.767072,-0.81647 -0.06389,0.064 0.102766,0.30462 0.370052,0.53473 0.472235,0.40645 1.225999,0.55847 1.39702,0.28174 z m -4.061532,-4.09253 c 0.244148,-0.29419 0.128344,-0.37867 -0.743074,-0.54215 -0.632777,-0.11872 -0.656989,-0.10709 -0.477088,0.22904 0.301503,0.56337 0.88763,0.71378 1.220162,0.31311 z m -45.707682,-2.34523 c 0.419307,-0.28087 1.366586,-1.19478 2.105055,-2.0309 1.357518,-1.53702 1.456458,-1.7575 1.386165,-3.08901 -0.01006,-0.19058 0.04334,-0.71682 0.11871,-1.16943 0.128635,-0.77268 -0.0084,-1.12713 -0.22127,-0.57237 -0.05291,0.13781 -0.749084,0.5666 -1.547114,0.95287 -1.162622,0.56274 -1.642408,0.7023 -2.414292,0.7023 -0.850328,0 -0.976457,0.0457 -1.075292,0.38982 -0.163785,0.57022 -0.344037,4.7242 -0.219122,5.04973 0.168048,0.43793 1.025226,0.33097 1.86716,-0.23301 z m 40.966067,-1.29427 c 0.498812,-0.36473 0.242978,-0.47113 -0.986027,-0.41006 l -1.102886,0.0548 0.606365,0.29371 c 0.750191,0.36337 1.052625,0.37593 1.482548,0.0615 z m -6.170418,-1.94635 c 0.19883,-0.25277 0.323967,-0.4971 0.278095,-0.54298 -0.04591,-0.0459 -0.571875,0.0993 -1.168882,0.32253 -0.96121,0.35947 -1.036225,0.41965 -0.655317,0.52571 0.820564,0.22849 1.182466,0.15704 1.546104,-0.30526 z m -34.119897,-3.41144 c 1.056192,-0.37896 3.393564,-1.9853 3.629376,-2.49425 0.351445,-0.75853 0.842624,-2.64368 0.688811,-2.64368 -0.07686,0 -0.184261,0.072 -0.238649,0.16 -0.172606,0.27927 -1.872706,0.76409 -3.040043,0.86692 l -1.126119,0.0992 -0.472797,0.86625 c -0.508825,0.93223 -0.560927,1.04647 -0.930136,2.03917 -0.397476,1.06872 -0.33216,1.34038 0.320125,1.33158 0.309687,-0.004 0.83593,-0.10552 1.169432,-0.22518 z m 16.9784,-3.49196 c 0.428796,-0.3228 1.419049,-1.01809 2.200565,-1.54511 0.781516,-0.52702 2.112842,-1.64238 2.958499,-2.47859 1.701837,-1.68282 2.174288,-2.50249 2.81844,-4.88974 0.344438,-1.2765 0.376982,-1.70429 0.289022,-3.79891 -0.133081,-3.16893 -0.842956,-5.65456 -2.282166,-7.99102 -0.756313,-1.22781 -1.055063,-2.70667 -0.787488,-3.8981 0.282296,-1.25696 0.97996,-3.27122 1.46364,-4.22571 0.69012,-1.36188 3.037183,-4.06562 3.300615,-3.80219 0.04033,0.0403 -0.03444,0.53775 -0.16613,1.10538 -0.292582,1.26104 -0.270628,2.50231 0.04426,2.50369 0.123187,5.4e-4 0.661338,-0.33036 1.19591,-0.73533 1.249638,-0.94668 2.385756,-1.76347 3.257865,-2.34221 0.381146,-0.25292 0.965851,-0.66795 1.299365,-0.92227 0.333501,-0.25432 0.879228,-0.61783 1.212741,-0.80779 0.333501,-0.18996 1.34701,-0.81322 2.252237,-1.38501 0.905226,-0.57178 2.58141,-1.52047 3.724848,-2.10818 2.272537,-1.16805 2.534822,-1.39312 2.216818,-1.90233 -0.113328,-0.18155 -0.320736,-0.78602 -0.460777,-1.34328 -0.46021,-1.83128 0.04591,-4.85261 1.301277,-7.7673509 0.393019,-0.91252 0.672247,-1.70145 0.620526,-1.75317 -0.131022,-0.13102 -1.090472,0.38574 -2.118596,1.1411 -0.476448,0.35003 -1.372995,0.9291 -1.992365,1.28683 -0.61937,0.35772 -1.360003,0.8064 -1.645872,0.99707 -1.39307,0.9291509 -4.946231,3.2602209 -5.992568,3.9314509 -1.87499,1.20282 -4.647056,4.10736 -5.788364,6.06499 -0.09529,0.16344 -0.453264,0.68387 -0.795517,1.15652 -0.342244,0.47264 -0.672629,0.97629 -0.734186,1.11922 -0.06155,0.14293 -0.463807,0.76663 -0.893886,1.38599 -1.723037,2.48136 -2.435414,3.5179 -2.600626,3.78405 -0.655971,1.05669 -1.504087,2.28639 -1.738794,2.5211 -0.405647,0.40564 -1.018416,0.34127 -1.627137,-0.17094 l -0.533904,-0.44925 0.07139,1.53389 c 0.07617,1.63662 0.543791,3.29048 1.142946,4.04234 0.569295,0.71439 0.961795,1.53755 1.793881,3.76215 1.097994,2.93552 1.394081,4.63118 1.264091,7.23916 -0.122546,2.45859 -0.334334,3.31496 -1.306777,5.28409 -1.188677,2.407 -2.56434,4.40853 -4.14621,6.03259 -1.05236,1.08041 -1.165956,1.33866 -0.246893,0.5613 0.357326,-0.30225 1.000515,-0.81363 1.429303,-1.13643 z m 27.701275,-4.04968 c 0.657707,-1.80102 1.301378,-2.81683 2.577272,-4.06738 1.218101,-1.19389 1.357789,-1.29235 3.078072,-2.16977 1.139275,-0.58108 1.67514,-0.73985 3.073958,-0.91081 1.062374,-0.12984 1.671115,-0.27722 1.632388,-0.39523 -0.06076,-0.18483 -2.322269,-1.87995 -4.712535,-3.53214 -2.358443,-1.6302 -5.040048,-3.15387 -6.302523,-3.58106 -0.70305,-0.2379 -1.365725,-0.50054 -1.472599,-0.58364 -0.106912,-0.0831 -0.934973,-0.35484 -1.8402,-0.60386 -1.700987,-0.46792 -2.231206,-0.59362 -6.323578,-1.49909 -1.33403,-0.29517 -2.65938,-0.60751 -2.945237,-0.69408 -0.624376,-0.18911 -2.685364,-0.42803 -2.685364,-0.3113 0,0.0454 1.083302,1.10118 2.407331,2.34615 7.075758,6.65325 8.817008,9.16552 11.449573,16.51947 0.361964,1.01113 0.75604,2.02138 0.875717,2.245 0.209195,0.3909 0.2261,0.37343 0.437747,-0.45242 0.121124,-0.47245 0.458575,-1.51188 0.749978,-2.30984 z m -42.860564,2.1656 c 0.476439,-0.12869 1.457853,-0.52843 2.180915,-0.88831 l 1.314667,-0.65434 0.47016,-1.20846 c 0.258592,-0.66466 0.441964,-1.23666 0.407501,-1.27113 -0.03444,-0.0344 -0.468155,0.0914 -0.963754,0.27973 -0.495599,0.18831 -1.20159,0.34239 -1.568867,0.34239 -0.744394,0 -1.659032,0.58558 -1.51222,0.96818 0.04931,0.1284 0.01415,0.2801 -0.07811,0.3371 -0.225048,0.13909 -1.376415,1.94848 -1.376415,2.16306 0,0.21823 0.08467,0.2131 1.126117,-0.0682 z m 11.503792,-2.75044 c -0.0094,-0.11911 -0.07652,-0.41147 -0.148934,-0.64968 l -0.131673,-0.43313 -0.198798,0.49098 c -0.109339,0.27003 -0.154657,0.56239 -0.100711,0.64968 0.146393,0.23688 0.600006,0.19164 0.580113,-0.0578 z m -8.467472,-2.08459 c 0.980954,-0.48112 1.614439,-0.97436 1.873766,-1.45892 0.202137,-0.3777 0.286684,-2.30364 0.101142,-2.30364 -0.05481,0 -0.617371,0.38981 -1.250157,0.86624 -0.632786,0.47643 -1.250634,0.86624 -1.372983,0.86624 -0.122358,0 -0.222758,0.17542 -0.223111,0.38981 -3.6e-4,0.2144 -0.156281,0.64508 -0.346501,0.95706 -0.690905,1.13319 -0.228491,1.39261 1.21785,0.68321 z m -10.47854,-1.5433 c 0.10754,-0.35855 0.53093,-0.84466 1.205263,-1.38379 1.636193,-1.30812 2.044454,-1.4699 4.455531,-1.76558 2.37178,-0.29085 3.080477,-0.51836 3.817106,-1.22538 0.530886,-0.50953 0.607727,-0.78975 0.216562,-0.78975 -0.142929,0 -0.259876,-0.10486 -0.259876,-0.23302 0,-0.45849 0.62883,-0.74744 2.057163,-0.94527 1.36986,-0.18973 1.927566,-0.40538 1.927566,-0.74536 0,-0.0818 -0.214394,-0.19995 -0.476432,-0.26255 -0.262044,-0.0626 -0.573892,-0.19057 -0.693,-0.28439 -0.119112,-0.0938 -0.216562,-0.12004 -0.216562,-0.0583 0,0.16949 -0.945595,-0.35435 -1.205956,-0.66806 -0.339869,-0.40952 0.02966,-0.72273 2.155952,-1.82729 1.00885,-0.52408 2.045909,-1.16093 2.304566,-1.41522 0.612002,-0.60167 1.309972,-1.5277 1.219585,-1.61809 -0.03903,-0.039 -0.463579,0.11102 -0.943507,0.33338 -0.726003,0.33636 -4.748514,1.31394 -5.406562,1.31394 -0.633066,0 1.483474,-2.84711 2.970387,-3.9957 2.366628,-1.82812 2.843184,-2.21688 3.742813,-3.05323 0.531612,-0.49423 1.220036,-1.37131 1.529828,-1.94905 0.598486,-1.11615 0.545664,-1.33792 -0.14325,-0.60148 -0.452597,0.48382 -2.678851,2.18901 -3.105373,2.37856 -0.14293,0.0635 -0.376818,0.18811 -0.519747,0.27688 -0.142929,0.0888 -1.076393,0.56941 -2.074359,1.06808 -2.021287,1.01001 -3.5082,2.1022 -4.80084,3.5264 -0.625923,0.68962 -0.915919,0.89933 -1.053455,0.7618 -0.137526,-0.13753 -0.07639,-0.44616 0.222129,-1.12115 l 0.411902,-0.93138 -0.46735,0.11301 c -0.839846,0.20309 -1.207817,0.38116 -2.056378,0.99513 -0.929712,0.67269 -2.182782,1.95311 -2.357835,2.40929 -0.208815,0.54418 -0.512623,0.328 -0.43795,-0.31163 l 0.07095,-0.60771 -0.658369,0.64287 c -0.362096,0.35359 -0.658362,0.71837 -0.658362,0.81064 0,0.0923 -0.116546,0.29654 -0.258985,0.45393 -0.142446,0.1574 -0.307416,0.67029 -0.366597,1.13976 -0.09589,0.7607 -0.801376,2.15296 -1.090935,2.15296 -0.06058,0 -0.479124,0.33875 -0.93009,0.75278 -0.450967,0.41403 -1.167075,0.93132 -1.591353,1.14954 -0.715689,0.36809 -0.785876,0.46638 -0.971513,1.36059 -0.155901,0.75098 -0.151317,1.16715 0.02076,1.88451 0.25333,1.05599 0.608749,1.48941 0.802902,0.97912 0.216897,-0.57009 0.968011,-1.0098 2.128329,-1.24596 0.622243,-0.12665 1.192913,-0.33965 1.268164,-0.47335 0.216365,-0.38441 1.664564,-1.6977 2.163214,-1.96169 0.249138,-0.1319 0.907643,-0.34588 1.463352,-0.47552 1.135495,-0.26489 1.700384,-0.58695 2.467036,-1.40652 0.536175,-0.57318 1.296444,-0.81254 1.426054,-0.44898 0.03942,0.11064 -0.07187,0.34452 -0.247343,0.51975 -0.175473,0.17522 -0.533131,0.60922 -0.794789,0.96441 -0.600687,0.81544 -1.652034,1.42509 -2.942977,1.70657 -0.856045,0.18665 -1.199966,0.39231 -2.302582,1.37691 -1.203941,1.07508 -1.745532,1.36486 -3.05796,1.63616 -0.84164,0.17399 -0.478945,0.84745 0.741462,1.3768 0.891327,0.3866 1.116721,0.3384 1.301703,-0.27839 z m -3.295534,-3.27333 c -0.163987,-0.42733 0.206025,-1.18274 0.686571,-1.40169 0.823122,-0.37504 0.751512,-0.002 -0.238335,1.24188 -0.284307,0.35724 -0.361868,0.38489 -0.448236,0.15981 z m 5.107167,-4.76341 c 0,-0.12583 0.289297,-0.61808 0.642889,-1.0939 0.634644,-0.85403 1.774939,-1.58059 2.8618,-1.82346 l 0.472838,-0.10567 -0.429523,0.80783 c -0.236238,0.4443 -0.429522,0.89956 -0.429522,1.01169 0,0.26712 -0.685889,0.88929 -1.126117,1.0215 -0.190579,0.0572 -0.716821,0.17307 -1.169433,0.25742 -0.6437,0.11995 -0.822932,0.10354 -0.822932,-0.0754 z m 18.261256,6.20729 c -0.154565,-0.35733 -0.320629,-0.78613 -0.369025,-0.95288 -0.150099,-0.51715 -0.394084,-0.33362 -0.394084,0.29644 0,0.39374 0.130187,0.72091 0.379168,0.95287 0.567835,0.52902 0.697656,0.42879 0.383941,-0.29643 z m -9.448768,-0.46138 c 0.441556,-0.32522 0.933324,-0.81446 1.092814,-1.08719 0.275258,-0.4707 0.272684,-0.51764 -0.05075,-0.92461 l -0.340718,-0.42875 -0.38239,0.51957 c -0.210309,0.28576 -0.635765,0.76778 -0.945445,1.07117 -0.528103,0.51736 -0.711781,1.0614 -0.447562,1.32562 0.175355,0.17536 0.211945,0.15915 1.074035,-0.47581 z m 50.519468,-2.83035 c -0.374455,-0.87656 -0.600554,-2.17871 -0.600554,-3.45874 0,-2.43966 0.892297,-4.39439 2.882071,-6.31369 0.949509,-0.91589 3.843889,-2.74482 4.343789,-2.74482 0.12314,0 0.22383,-0.0615 0.22383,-0.13658 0,-0.16769 -2.48887,-0.62454 -6.063689,-1.11305 -2.02762,-0.27708 -3.640161,-0.37055 -6.583474,-0.3816 -4.993624,-0.0187 -5.881191,0.0971 -12.473922,1.62782 -1.191083,0.27655 -2.750331,0.62519 -3.464978,0.77476 -1.544658,0.32327 -4.323437,1.17617 -4.328008,1.32841 -0.002,0.0591 0.445061,0.19099 0.992959,0.29316 0.547903,0.10217 2.087656,0.38791 3.421673,0.63499 1.334016,0.24708 2.804755,0.56344 3.268311,0.70303 0.463555,0.13958 0.985196,0.25379 1.15921,0.25379 0.174001,0 0.364555,0.078 0.423445,0.17325 0.05887,0.0953 0.273291,0.17324 0.476423,0.17324 0.579007,0 4.269142,1.14748 5.587298,1.73742 0.381145,0.17058 0.956731,0.40893 1.279076,0.52966 0.322332,0.12074 0.790114,0.38819 1.039495,0.59436 0.249369,0.20616 0.895592,0.61522 1.436049,0.90902 0.540444,0.29381 1.709867,1.06137 2.598729,1.7057 2.765689,2.00484 4.208995,2.99928 4.363312,3.0063 0.08163,0.004 0.09018,-0.12968 0.01899,-0.29643 z m -40.794315,-1.28468 c 0,-0.22156 -1.749198,-1.91816 -1.861667,-1.80569 -0.03837,0.0384 0.06999,0.46308 0.240743,0.94385 0.268592,0.75625 0.381304,0.88318 0.835753,0.94119 0.288918,0.0369 0.583767,0.0795 0.655232,0.0948 0.07147,0.0152 0.129939,-0.0631 0.129939,-0.17414 z m -2.054596,-4.29881 c 0.415377,-0.18847 0.635279,-0.3444 0.488676,-0.34649 -0.146603,-0.002 -0.566572,-0.15677 -0.93326,-0.34371 -0.492906,-0.2513 -0.750859,-0.29488 -0.989506,-0.16716 -0.411614,0.2203 -0.405564,0.31 0.05388,0.79909 0.455944,0.48532 0.440512,0.48467 1.380186,0.0583 z m -11.141702,-5.85144 c 1.051969,-0.39424 1.590245,-0.7585 3.135435,-2.12181 1.057384,-0.93292 2.024391,-1.94605 2.232381,-2.33887 0.415792,-0.78524 0.752628,-1.64586 0.644167,-1.64586 -0.03987,0 -0.486242,0.44121 -0.991891,0.98047 -0.50565,0.53927 -1.676365,1.47426 -2.601583,2.07776 -1.741734,1.13608 -4.294876,3.24574 -4.294876,3.54886 0,0.19338 0.08592,0.17046 1.876367,-0.50055 z m 28.797626,-0.65235 c 1.205232,-0.42522 5.991083,-1.6385 7.960532,-2.01809 1.000516,-0.19285 2.130962,-0.42573 2.512107,-0.51752 0.381146,-0.0918 1.62854,-0.32691 2.77199,-0.52248 2.718572,-0.46498 8.534106,-0.50786 11.521051,-0.085 2.75421,0.38994 6.953743,1.10532 7.319763,1.24689 0.40914,0.15824 0.38902,-0.1789 -0.0473,-0.79158 -1.02412,-1.43824 -1.65906,-3.47677 -1.59935,-5.13482 0.0338,-0.9346 0.5007,-2.72145 0.73141,-2.79836 0.0983,-0.0328 0.17887,-0.17095 0.17887,-0.30702 0,-0.77373 3.46683,-4.59413 4.98092,-5.48892 1.36899,-0.80903 0.20755,-0.79324 -3.24842,0.0441 -1.09581,0.26552 -3.70752,0.8908 -5.803826,1.38952 -3.32677,0.79144 -4.613833,1.16189 -6.063717,1.7453 -0.19058,0.0767 -1.306938,0.45632 -2.480801,0.84364 -2.136583,0.70497 -6.642452,2.90221 -7.82751,3.81699 -0.333513,0.25745 -0.786868,0.56416 -1.007458,0.68159 -1.34589,0.71641 -10.596173,7.60752 -10.744603,8.00431 -0.07672,0.2051 -0.02363,0.19829 0.846293,-0.10865 z m 17.315984,71.507113 c 0,-0.46741 0.633897,-0.62991 0.748443,-0.19186 0.04692,0.1795 0.02113,0.32637 -0.05748,0.32637 -0.07861,0 -0.266184,0.0474 -0.416904,0.10516 -0.193322,0.0742 -0.274046,0.003 -0.274046,-0.23967 z m 10.231238,-1.2024 c 0.186521,-0.29868 0.474081,-0.36689 1.966871,-0.46658 0.96163,-0.0643 2.15772,-0.16322 2.65797,-0.21999 0.82844,-0.094 0.90956,-0.0723 0.90956,0.24324 0,0.37372 -0.0848,0.38762 -4.1325,0.67722 -1.595156,0.11413 -1.616964,0.11049 -1.401901,-0.23389 z m -37.18188,-0.36277 c -1.235482,-1.181143 -2.821721,-2.359393 -4.587433,-3.407503 -1.046815,-0.62138 -1.980291,-1.12978 -2.074392,-1.12978 -0.09411,0 -0.171092,-0.15593 -0.171092,-0.3465 0,-0.19057 0.0987,-0.34649 0.219338,-0.34649 0.120634,0 0.999165,0.45054 1.95229,1.0012 2.646026,1.52873 5.952262,4.152723 5.715378,4.536013 -0.186152,0.30119 -0.519538,0.20412 -1.054089,-0.30694 z m 5.894135,0.30277 c -0.0626,-0.10128 0.03025,-0.34568 0.206341,-0.54308 0.543899,-0.609753 2.520516,-2.043713 2.680674,-1.944723 0.28024,0.17319 0.154892,0.55097 -0.276626,0.83371 -0.235525,0.15432 -0.822842,0.63106 -1.305154,1.059413 -0.912912,0.8108 -1.114812,0.90279 -1.305235,0.59468 z M 47.153015,99.867647 c -0.397246,-0.11485 -0.527211,-0.23688 -0.454385,-0.42666 0.141988,-0.37002 0.746223,-0.23894 1.055355,0.22894 0.279775,0.423463 0.233043,0.438833 -0.60097,0.19772 z m -4.900963,-1.03525 c -2.464246,-0.43891 -4.696006,-0.67202 -9.613222,-1.0041 -3.689455,-0.24917 -4.162404,-0.31469 -4.213988,-0.58385 -0.075,-0.39128 0.06856,-0.39035 5.878965,0.0379 4.014012,0.29587 8.605014,0.84656 9.5508,1.14562 0.166752,0.0527 0.303185,0.24654 0.303185,0.43069 0,0.18415 -0.01951,0.32647 -0.04328,0.31627 -0.02383,-0.0102 -0.861913,-0.16435 -1.862427,-0.34255 z m 73.894048,-0.38976 -0.31106,-0.5776 1.47108,-2.32432 c 1.73617,-2.74316 3.55577,-6.03188 4.20959,-7.60841 0.25689,-0.61936 0.52732,-1.20407 0.601,-1.29936 0.0737,-0.0953 0.19322,-0.36815 0.26564,-0.60637 0.0724,-0.23822 0.31587,-0.83743 0.54096,-1.33158 0.22508,-0.49415 0.40924,-0.95014 0.40924,-1.01331 0,-0.0632 0.11346,-0.36053 0.25205,-0.66079 0.28275,-0.61243 1.7157,-5.65691 2.09902,-7.38926 0.96911,-4.37977 1.5005,-9.61811 1.38839,-13.68668 -0.11659,-4.23002 -0.8553,-9.44215 -1.8294,-12.90705 -0.26788,-0.95287 -0.53934,-2.00536 -0.60324,-2.33886 -0.31196,-1.62817 -2.66245,-7.72123 -3.87635,-10.04845 -3.44854,-6.61135 -7.52999,-12.37512 -11.68676,-16.50387 -1.32855,-1.31959 -1.49908,-1.55599 -1.33871,-1.85566 0.10118,-0.18888 0.34658,-0.43054 0.54555,-0.53702 0.42971,-0.22998 0.7287,0.032 3.58982,3.14564 2.09899,2.28425 3.77954,4.3721 4.93865,6.13559 0.43841,0.66701 1.02264,1.53238 1.29827,1.92305 0.27564,0.39066 0.60848,0.91459 0.73964,1.16429 0.13116,0.24971 0.62929,1.0995 1.10696,1.88844 0.47766,0.78894 1.17516,2.09711 1.55,2.90705 0.37485,0.80994 0.92931,1.90141 1.23217,2.42549 0.30285,0.52408 0.60425,1.14777 0.66979,1.38599 0.0655,0.23822 0.18738,0.58905 0.27074,0.77962 0.41448,0.94771 1.37784,3.52685 1.48836,3.98473 0.0691,0.28586 0.27837,0.87058 0.46529,1.29937 0.36722,0.8424 0.55813,1.50636 0.82195,2.85861 0.32589,1.67043 0.84973,4.17243 1.19702,5.71722 0.47169,2.09809 0.70558,4.42166 0.81095,8.05607 0.11685,4.03155 -0.17231,7.7012 -0.90797,11.52106 -0.33034,1.71517 -0.62884,3.35237 -0.66337,3.63823 -0.10253,0.84903 -0.44644,2.10054 -1.33407,4.85492 -0.46131,1.43148 -0.83874,2.65725 -0.83874,2.72394 0,0.0667 -0.18445,0.53269 -0.4099,1.03555 -0.22544,0.50286 -0.55056,1.26512 -0.72247,1.69391 -0.2728,0.6804 -1.97266,4.20146 -2.47523,5.12718 -1.19058,2.19298 -4.29117,7.00026 -4.51502,7.00026 -0.0763,0 -0.27876,-0.25993 -0.44984,-0.57762 z M 14.768259,97.937447 c -2.13891,-2.93566 -4.306315,-6.79585 -6.0067372,-10.69813 -1.747346,-4.00995 -3.4318565,-9.50875 -4.1928045,-13.68667 -0.6642943,-3.64723 -0.972378,-11.55931 -0.6130308,-15.74359 0.3612139,-4.206 1.3355301,-9.41917 2.2544953,-12.06288 0.2980967,-0.85758 0.6608624,-1.98803 0.8061485,-2.51211 0.5542623,-1.99932 0.7354443,-2.43161 3.0497667,-7.27646 0.56897,-1.19109 1.377811,-2.71789 1.797433,-3.3929 0.419621,-0.67501 0.762945,-1.28748 0.762945,-1.36106 0,-0.0736 0.220595,-0.41786 0.490222,-0.76508 0.269627,-0.34722 0.741502,-1.06009 1.048623,-1.58417 0.792851,-1.35297 2.455308,-3.65721 3.374862,-4.67773 0.128793,-0.14293 0.500351,-0.6107 0.82569,-1.03949 1.258766,-1.65903 7.040081,-7.26059 9.679762,-9.37879 0.834987,-0.67003 3.240484,-2.33321 3.724852,-2.57539 0.09529,-0.0477 0.837712,-0.51542 1.649827,-1.0395 0.812109,-0.5240709 1.630713,-1.0481409 1.819111,-1.1645909 0.590924,-0.36523 5.482919,-2.75495 6.752756,-3.29868 5.275163,-2.25879 11.622017,-3.98576 16.049397,-4.36702 1.187584,-0.10227 2.817982,-0.26168 3.62311,-0.35423002 4.299791,-0.49432 12.279728,-0.0144 17.142894,1.03093002 1.345488,0.28921 5.337616,1.35597 5.538055,1.47985 0.245809,0.15192 -0.963763,1.12978 -1.397484,1.12978 -0.173938,0 -0.700623,-0.15151 -1.170404,-0.33668 -1.326069,-0.52269 -5.808794,-1.32958 -10.333244,-1.86001 -2.841034,-0.33307 -10.332218,-0.0831 -14.033165,0.46828 -4.168695,0.62106 -5.801326,0.93279 -6.901389,1.31773 -0.682721,0.23891 -1.672057,0.54098 -2.198522,0.67129 -1.172485,0.29021 -4.649783,1.51845 -5.712877,2.01789 -0.428789,0.20144 -1.091465,0.50208 -1.472618,0.66808 -1.845526,0.80381 -3.51548,1.64485 -4.000431,2.01473 -0.295211,0.22518 -0.617849,0.4094 -0.716972,0.4094 -0.331571,0 -4.19333,2.5151709 -6.149307,4.0050509 -0.735909,0.56054 -1.414203,1.01918 -1.507323,1.01918 -0.09311,0 -0.231649,0.10219 -0.307847,0.2271 -0.0762,0.12489 -0.684278,0.68409 -1.35129,1.24265 -0.667005,0.55856 -1.680517,1.46069 -2.252235,2.00475 -0.571724,0.54406 -1.319754,1.25175 -1.6623,1.57264 -1.073393,1.00556 -4.353067,4.80637 -5.100417,5.91086 -0.241784,0.35733 -0.505669,0.64968 -0.586406,0.64968 -0.08074,0 -0.196026,0.13644 -0.256203,0.30319 -0.06017,0.16675 -0.422325,0.73198 -0.80478,1.25605 -0.850205,1.16502 -1.711706,2.46516 -2.263615,3.41613 -2.278644,3.92624 -2.593283,4.50019 -3.113415,5.67945 -0.210139,0.47643 -0.559416,1.21707 -0.776167,1.64586 -0.6750781,1.33548 -2.0225242,4.9911 -2.5862735,7.01659 -0.1591306,0.57172 -0.43173,1.50727 -0.6057754,2.07898 -0.3720568,1.22213 -0.5822729,2.3644 -0.9565039,5.19747 -0.1510431,1.14345 -0.3431728,2.39084 -0.4269553,2.77199 -0.08378,0.38115 -0.2491524,2.10932 -0.3674931,3.84038 -0.2437883,3.56592 -0.048852,7.61469 0.5365942,11.14566 0.1816884,1.09581 0.4543,2.81097 0.6058076,3.81148 0.2448097,1.61673 0.7289219,3.59719 1.1222545,4.5911 0.075413,0.19057 0.2338485,0.69733 0.3520581,1.12612 0.5245865,1.90279 1.7963848,5.3733 2.3173418,6.32359 0.313426,0.57172 0.742929,1.50727 0.954456,2.07898 0.211525,0.57173 0.57492,1.33018 0.807544,1.68547 0.232618,0.35528 0.422942,0.69207 0.422942,0.7484 0,0.0563 0.219593,0.42834 0.487976,0.82665 0.268389,0.39832 0.745586,1.19198 1.060435,1.76371 0.734495,1.33372 2.014025,3.27302 2.33559,3.5399 0.214683,0.17817 0.200512,0.28966 -0.101959,0.80231 -0.193205,0.32746 -0.453213,0.59538 -0.577795,0.59538 -0.124583,0 -0.524724,-0.40929 -0.88921,-0.90955 z M 6.0430119,47.305427 c 0,-0.0477 -0.038949,-0.0866 -0.086621,-0.0866 -0.047672,0 -0.086621,0.039 -0.086621,0.0866 0,0.0477 0.03897,0.0866 0.086621,0.0866 0.047672,0 0.086621,-0.039 0.086621,-0.0866 z m 95.4601981,49.98234 c 0.15328,-0.28645 0.36274,-0.3465 1.20859,-0.3465 1.01474,0 1.48225,0.24528 1.02252,0.53647 -0.13131,0.0832 -0.72877,0.15242 -1.32767,0.15388 -1.03555,0.003 -1.07981,-0.0143 -0.90344,-0.34385 z m -84.866448,-2.03061 c -1.409895,-1.94836 -1.915995,-2.74817 -2.552061,-4.0331 -0.353763,-0.71466 -0.934622,-1.80612 -1.2908,-2.42549 -0.356171,-0.61937 -0.772199,-1.49551 -0.924498,-1.94699 -0.1523,-0.45148 -0.356657,-0.95823 -0.454123,-1.12612 -0.430361,-0.7413 -2.1406246,-5.63874 -2.4359002,-6.97533 -0.1789238,-0.80994 -0.5187448,-2.25224 -0.7551483,-3.20512 -0.2364014,-0.95286 -0.475383,-2.00535 -0.5310679,-2.33885 -0.055724,-0.33351 -0.1725986,-1.03517 -0.2597917,-1.55925 -0.2251656,-1.35326 -0.5084179,-4.43713 -0.6140181,-6.68498 -0.081672,-1.7383 0.3208456,-9.61979 0.5066376,-9.92041 0.042304,-0.0685 0.1214136,-0.51175 0.1757681,-0.98507 0.148509,-1.29324 0.4115225,-2.59429 0.8744387,-4.32553 0.229311,-0.85759 0.5469148,-2.10498 0.7057886,-2.77199 0.3321999,-1.39471 0.6212081,-2.34966 0.7864866,-2.59874 0.063251,-0.0953 0.3269006,-0.83592 0.5859536,-1.64586 0.259045,-0.80994 0.736787,-2.04883 1.061646,-2.75307 0.324859,-0.70426 0.590655,-1.36871 0.590655,-1.47657 0,-0.10787 0.258233,-0.58823 0.573853,-1.06747 0.315621,-0.47925 0.70998,-1.21157 0.876358,-1.62738 0.50356,-1.25853 2.894409,-5.09296 4.756483,-7.62843 1.723582,-2.34689 4.812395,-5.79591 7.360521,-8.21887 1.377633,-1.30996 2.702239,-2.51088 2.943573,-2.66872 0.241327,-0.15784 1.088454,-0.81649 1.882502,-1.46368 0.794043,-0.64719 1.794551,-1.38149 2.22334,-1.63177 0.428788,-0.25029 1.104122,-0.6953 1.500727,-0.98891 0.694953,-0.51447 1.536298,-1.03785 4.129867,-2.56905 1.286929,-0.7597809 3.681669,-1.8152809 6.670088,-2.9398809 1.000514,-0.37651 1.975039,-0.75444 2.165611,-0.83984 0.525176,-0.23535 3.719235,-1.12007 6.150342,-1.70357 7.335312,-1.76061 18.946928,-1.70096 26.056608,0.13384 1.252299,0.32319 1.777511,0.52509 1.559235,0.59941 -0.18102,0.0616 -0.699818,0.34459 -1.15287,0.62877 -0.708988,0.44472 -0.889982,0.49088 -1.299366,0.33129 -0.535664,-0.20881 -1.297642,-0.34322 -4.893479,-0.86322 -3.042459,-0.43998 -10.953328,-0.55611 -13.686669,-0.20092 -3.049788,0.39631 -5.796337,0.88503 -7.016583,1.24853 -0.667011,0.1987 -2.327523,0.67401 -3.690036,1.05624 -1.362508,0.38224 -3.063873,0.96593 -3.780819,1.29709 -0.71694,0.33116 -1.395287,0.60205 -1.507434,0.60199 -0.26251,-1.7e-4 -4.979161,2.3832509 -6.79981,3.4360609 -1.511141,0.87384 -2.370944,1.45704 -4.439908,3.01156 -0.733624,0.55122 -1.376218,1.00221 -1.427986,1.00221 -0.107012,0 -0.699379,0.48336 -1.751654,1.42931 -0.397496,0.35732 -0.75683,0.64968 -0.798522,0.64968 -0.12252,0 -4.823043,4.54045 -4.823043,4.6588 0,0.0593 -0.471351,0.61094 -1.047449,1.22583 -0.5761,0.61489 -1.141322,1.28489 -1.256056,1.48889 -0.114735,0.204 -0.910265,1.29719 -1.767848,2.42929 -1.587285,2.09541 -3.378352,4.7123 -3.378352,4.93605 0,0.068 -0.268389,0.5802 -0.596425,1.13826 -0.328028,0.55806 -0.8769,1.59937 -1.219708,2.31402 -0.342813,0.71466 -0.776297,1.61122 -0.963301,1.99237 -0.187004,0.38115 -0.339796,0.75368 -0.339534,0.82786 2.7e-4,0.0742 -0.263432,0.69787 -0.585992,1.38599 -0.742019,1.58294 -1.335307,3.3571 -2.446128,7.31485 -0.410324,1.46193 -1.1154961,5.21559 -1.3832443,7.36308 -0.3303851,2.64979 -0.4741406,8.41644 -0.2569767,10.30832 0.7056124,6.1472 1.2275663,9.26007 1.812138,10.80731 0.130319,0.34492 0.361639,1.14736 0.514057,1.7832 0.340549,1.42071 0.784089,2.72535 1.348009,3.9651 0.235807,0.5184 0.807899,1.8391 1.271319,2.9349 0.463422,1.0958 1.166277,2.5381 1.5619,3.2051 0.395617,0.66702 0.88265,1.53575 1.082286,1.93052 0.199635,0.39478 0.755449,1.33032 1.235136,2.07899 0.479685,0.74867 0.872166,1.44408 0.872179,1.54537 1.3e-5,0.10128 -0.221015,0.39591 -0.491179,0.65474 l -0.491198,0.4706 z m 97.701658,0.40869 c -0.44317,-0.71705 -0.447,-0.86662 -0.0375,-1.46026 0.86964,-1.2606 1.89089,-2.93547 2.00007,-3.28014 0.067,-0.21188 0.37508,-0.75761 0.68439,-1.21274 1.00324,-1.47622 3.67013,-7.73546 4.26486,-10.00972 0.0748,-0.28586 0.31071,-1.14344 0.52432,-1.90573 1.11705,-3.98589 1.68146,-7.79646 1.84051,-12.42567 0.11433,-3.32933 -0.0962,-7.68178 -0.45922,-9.49034 -0.0861,-0.42879 -0.28413,-1.59822 -0.44016,-2.59873 -0.15601,-1.00051 -0.424,-2.32587 -0.5955,-2.94523 -0.17151,-0.61937 -0.56656,-2.06167 -0.87788,-3.20511 -0.31133,-1.14344 -0.79669,-2.62378 -1.07859,-3.28962 -0.28192,-0.66585 -0.62619,-1.60139 -0.76505,-2.07899 -0.13887,-0.4776 -0.68894,-1.68696 -1.22237,-2.68747 -0.53344,-1.00052 -1.19856,-2.28684 -1.47804,-2.8585 -0.97405,-1.99241 -5.21056,-8.39941 -5.87766,-8.88895 -0.16967,-0.12452 -0.3085,-0.33891 -0.3085,-0.47643 0,-0.13753 -0.0585,-0.25061 -0.12993,-0.2513 -0.0714,-6.5e-4 -0.51976,-0.4877 -0.99619,-1.08228 -0.47644,-0.59457 -1.42699,-1.64894 -2.11233,-2.34302 -0.68536,-0.69409 -1.29754,-1.42404 -1.36041,-1.62213 -0.11119,-0.35025 0.37182,-1.70803 0.60757,-1.70803 0.13832,0 2.29336,2.23919 3.75504,3.90168 2.45988,2.79784 3.03679,3.52262 3.72046,4.67414 0.396,0.66701 0.90937,1.417 1.14083,1.66665 0.41783,0.45066 0.54376,0.65409 1.50596,2.43261 0.27524,0.50873 0.80051,1.36753 1.16726,1.90845 0.36677,0.54091 0.97127,1.67136 1.34336,2.51211 0.37207,0.84074 0.99468,2.18289 1.38356,2.98255 0.38886,0.79966 0.98985,2.3589 1.3355,3.46498 0.34565,1.10608 0.69855,2.08512 0.78422,2.17565 0.0857,0.0905 0.15577,0.30879 0.15577,0.48503 0,0.17625 0.1176,0.54786 0.26132,0.8258 0.61832,1.19569 1.76922,7.96244 2.09165,12.29788 0.32255,4.3372 -0.0427,10.92275 -0.7909,14.26308 -0.089,0.39763 -0.24162,1.15175 -0.33897,1.67583 -0.82181,4.42351 -2.19417,8.47861 -4.44247,13.12666 -0.61153,1.26424 -1.11185,2.32615 -1.11185,2.3598 0,0.26222 -3.33602,5.37651 -3.62259,5.55363 -0.0875,0.0541 -0.32186,-0.16462 -0.52058,-0.48614 z m -75.147098,-0.91906 c 0.06351,-0.0635 0.167472,-0.0635 0.231001,0 0.06351,0.0635 0.01157,0.1155 -0.115503,0.1155 -0.12705,0 -0.179028,-0.052 -0.115501,-0.1155 z m -9.153323,-0.5775 c -0.141287,-0.22861 0.06587,-0.55303 0.271846,-0.42573 0.210427,0.13006 0.209065,0.59898 -0.002,0.59898 -0.08967,0 -0.211212,-0.078 -0.270097,-0.17325 z m 70.877371,-0.1008 c -0.0579,-0.15072 -0.10516,-0.28991 -0.10516,-0.30931 0,-0.0194 0.33,-0.0325 0.73334,-0.0291 0.55743,0.004 0.74749,0.0788 0.79231,0.30932 0.0482,0.2477 -0.0668,0.30318 -0.62818,0.30318 -0.46678,0 -0.72088,-0.0879 -0.79231,-0.27404 z m -19.389129,-0.58022 c 0.04818,-0.18398 0.372153,-0.44704 0.720093,-0.58456 1.289579,-0.50972 6.222151,-1.49225 8.879997,-1.76881 0.995082,-0.10354 1.159298,-0.0797 1.260135,0.18309 0.06378,0.16618 0.09459,0.31716 0.06855,0.33551 -0.02603,0.0183 -0.827016,0.12986 -1.779875,0.24782 -2.38858,0.29569 -6.76896,1.16193 -7.976506,1.5774 -1.232225,0.42394 -1.280876,0.42433 -1.172405,0.01 z m -36.805386,-1.33946 c -0.119112,-0.0481 -0.216562,-0.24656 -0.216562,-0.44111 0,-0.30376 0.07646,-0.33842 0.541401,-0.24543 0.297769,0.0595 0.707073,0.10857 0.909555,0.10893 0.309197,5.4e-4 0.277309,0.056 -0.199091,0.3465 -0.587872,0.35842 -0.6728,0.37738 -1.035303,0.23111 z m 4.114661,-2.50841 c -0.619368,-0.1824 -1.702767,-0.44485 -2.40756,-0.58324 -0.704786,-0.13838 -1.324352,-0.29453 -1.376801,-0.34698 -0.05245,-0.0524 0.11115,-0.30188 0.363564,-0.55429 l 0.45893,-0.45893 1.524242,0.29552 c 2.855038,0.55354 3.26263,0.70012 3.210265,1.15453 -0.04767,0.41392 -0.344215,0.87963 -0.537799,0.84466 -0.05978,-0.0108 -0.615479,-0.16887 -1.234841,-0.35127 z m 62.924024,-0.0102 c -0.5602,-0.5602 0.0683,-1.50699 0.83813,-1.26264 0.64894,0.20597 0.34535,1.47054 -0.35304,1.47054 -0.15245,0 -0.37076,-0.0935 -0.48509,-0.2079 z m -27.754486,-0.30164 c 0,-0.27778 0.309805,-0.37254 0.808654,-0.24733 0.430703,0.1081 0.444374,0.13317 0.137903,0.253 -0.482397,0.18861 -0.946557,0.18583 -0.946557,-0.006 z m -64.660657,-1.20311 c -1.232581,-0.62428 -0.911717,-2.29759 0.462806,-2.41353 1.129286,-0.0953 1.781755,0.96441 1.239489,2.01304 -0.325534,0.62951 -0.956866,0.77803 -1.702295,0.40049 z m 11.403718,-9.02883 c -1.282502,-0.93499 -1.503523,-1.00727 -1.84009,-0.60173 -0.277656,0.33456 -1.69246,1.29473 -1.907765,1.29473 -0.08896,0 -0.0368,-0.29236 0.115968,-0.64969 0.675078,-1.57922 0.756161,-1.80544 0.756161,-2.10964 0,-0.17715 -0.102001,-0.36123 -0.226686,-0.40907 -0.124671,-0.0479 -0.631206,-0.38752 -1.125632,-0.75485 l -0.898953,-0.66785 0.562577,-0.14699 c 0.309418,-0.0808 0.960374,-0.11435 1.446576,-0.0745 l 0.883999,0.0725 0.469426,-1.44144 c 0.258181,-0.79279 0.497306,-1.44143 0.531382,-1.44143 0.03405,0 0.191031,0.4093 0.348786,0.90955 0.619047,1.96301 0.525659,1.86042 1.711083,1.8797 0.583982,0.009 1.256697,0.0727 1.494912,0.14055 l 0.433125,0.12329 -0.433125,0.23135 c -0.238215,0.12725 -0.678947,0.44479 -0.979396,0.70566 -0.300448,0.26087 -0.649626,0.50876 -0.775956,0.55087 -0.17897,0.0597 -0.130437,0.36058 0.219784,1.36271 0.247205,0.70738 0.507279,1.42259 0.577932,1.58934 0.205711,0.4855 -0.0975,0.36034 -1.364105,-0.56306 z m -13.615304,0.43537 c -0.124973,-0.15059 -0.167268,-0.44304 -0.101791,-0.70392 0.09099,-0.36252 0.20031,-0.43612 0.582405,-0.39206 0.563081,0.0649 0.721923,0.6442 0.293992,1.07213 -0.348295,0.3483 -0.50142,0.35301 -0.774601,0.0238 z m 99.918989,-3.89761 c -0.86695,-0.68195 -0.73125,-1.67943 0.32239,-2.36981 0.42101,-0.27584 0.4802,-0.27503 1.01672,0.0139 1.00757,0.54263 1.16187,1.46334 0.38707,2.30986 -0.44205,0.48297 -1.14681,0.50177 -1.72618,0.046 z M 12.633377,73.994117 c -0.269332,-0.32452 -0.175258,-0.78595 0.209653,-1.02835 0.441381,-0.27797 0.897718,0.0697 0.963851,0.73432 0.04983,0.50058 0.0122,0.54559 -0.455223,0.54559 -0.280227,0 -0.603456,-0.1132 -0.718281,-0.25156 z m 86.796081,0.0299 c -0.235344,-0.11908 -0.544154,-0.42365 -0.686259,-0.67682 -0.226614,-0.40375 -0.227444,-0.51806 -0.0063,-0.93043 0.542644,-1.01395 1.504331,-1.18062 2.242211,-0.3886 0.35046,0.37618 0.45987,1.10059 0.21869,1.4479 -0.18198,0.26207 -0.95153,0.77004 -1.162,0.76702 -0.09782,-0.001 -0.370555,-0.1 -0.605901,-0.21907 z m -81.84714,-1.21622 c -0.469242,-0.34312 -0.307108,-1.1898 0.281629,-1.47066 0.899053,-0.4289 1.644307,0.43505 1.096488,1.27113 -0.307369,0.46909 -0.893422,0.55395 -1.378117,0.19953 z m -0.67352,-6.83479 c -0.151718,-0.16676 -0.546659,-0.44815 -0.877641,-0.62533 l -0.601787,-0.32214 -0.80725,0.5554 c -0.443992,0.30547 -0.850722,0.51194 -0.903845,0.45881 -0.0531,-0.0531 0.03856,-0.50892 0.203826,-1.01288 l 0.300415,-0.91629 -0.558407,-0.43312 c -0.30712,-0.23822 -0.763679,-0.60607 -1.014578,-0.81746 l -0.456179,-0.38434 1.310654,-0.005 1.310651,-0.005 0.347896,-1.16943 0.347889,-1.16943 0.343134,1.12612 0.343135,1.12612 0.943552,0.12359 c 0.518955,0.068 1.041008,0.0899 1.160115,0.0488 0.55485,-0.19176 0.120419,0.31162 -0.748803,0.86767 -0.530944,0.33964 -0.936134,0.67337 -0.900421,0.74163 0.205751,0.39318 0.628404,1.39206 0.730586,1.72665 0.142124,0.46535 -0.08971,0.50782 -0.472942,0.0866 z m 97.414822,0.0727 c 0,-0.12679 0.19457,-0.61405 0.4324,-1.08281 0.2378,-0.46876 0.43272,-0.85882 0.43311,-0.86681 4.1e-4,-0.008 -0.44364,-0.31984 -0.98676,-0.693 l -0.9875,-0.67847 1.19783,-0.0866 1.19785,-0.0866 0.37562,-1.20606 0.37563,-1.20606 0.31351,1.03281 c 0.17245,0.56804 0.38325,1.12685 0.46847,1.2418 0.0863,0.11634 0.66668,0.23154 1.30943,0.25987 l 1.1545,0.0509 -1.0828,0.66222 c -1.15229,0.70472 -1.26029,0.86305 -0.77963,1.14301 0.16675,0.0971 0.24272,0.17896 0.1688,0.18186 -0.0739,0.003 -0.0155,0.23528 0.12994,0.51642 0.28507,0.55127 0.34657,1.04809 0.12973,1.04809 -0.0741,0 -0.55162,-0.31334 -1.0613,-0.6963 -0.75982,-0.57092 -0.96176,-0.65356 -1.12145,-0.45898 -0.24168,0.29448 -1.3994,1.15528 -1.55381,1.15528 -0.0625,0 -0.11357,-0.10373 -0.11357,-0.23051 z m -19.192081,-0.21245 c -0.467003,-0.3271 -0.498975,-0.95948 -0.06817,-1.34931 0.395422,-0.35786 0.710887,-0.36232 1.203863,-0.017 0.467002,0.32711 0.498974,0.95949 0.06817,1.34932 -0.395435,0.35786 -0.710899,0.36232 -1.203874,0.017 z m -62.699037,-1.66696 c -0.207611,-0.10134 -0.471273,-0.41071 -0.585908,-0.68746 -0.178792,-0.43165 -0.162069,-0.55801 0.117616,-0.88859 0.671344,-0.79356 1.092479,-0.84744 1.719901,-0.22002 0.42839,0.4284 0.556043,1.17925 0.275651,1.62141 -0.19304,0.3044 -1.058659,0.4034 -1.527253,0.17466 z m -8.291431,-0.85568 c -0.16275,-0.51277 0.49459,-1.17857 0.906845,-0.91853 0.812442,0.51248 0.629911,1.28539 -0.303553,1.28539 -0.343709,0 -0.521095,-0.10787 -0.603292,-0.36686 z m 65.191398,0.17973 c -0.348029,-0.20271 -0.40166,-0.85785 -0.09534,-1.16421 0.35667,-0.35668 0.977084,-0.23809 1.295303,0.24759 0.289064,0.44116 0.285857,0.4657 -0.101875,0.77963 -0.450991,0.36518 -0.661367,0.39143 -1.098195,0.13699 z m 6.373248,-5.33714 -0.859896,-0.65398 -0.755927,0.57701 c -1.134156,0.86573 -1.259557,0.79465 -0.816012,-0.46248 0.142934,-0.40511 0.25987,-0.8429 0.25987,-0.97288 0,-0.12997 -0.442286,-0.52947 -0.982856,-0.88778 l -0.98287,-0.65145 1.249972,-0.0511 c 1.36911,-0.0559 1.224703,0.0642 1.812353,-1.50819 0.159348,-0.42641 0.290811,-0.59303 0.341714,-0.43312 0.04553,0.14293 0.214716,0.63019 0.376039,1.0828 l 0.29329,0.82294 h 1.025168 c 0.563839,0 1.025169,0.0727 1.025169,0.16165 0,0.0889 -0.342821,0.44256 -0.761839,0.78591 l -0.761827,0.62426 0.327389,1.07652 c 0.180064,0.59208 0.327979,1.096 0.328709,1.11982 0.005,0.15058 -0.36833,-0.0595 -1.118446,-0.62998 z m -61.80082,-1.14512 c -0.162797,-0.35729 -0.142438,-0.49273 0.117189,-0.77961 0.17282,-0.19097 0.52693,-0.34721 0.786911,-0.34721 0.377649,0 0.490943,0.0954 0.563422,0.47459 0.131347,0.6871 -0.144697,1.08465 -0.753131,1.08465 -0.38351,0 -0.568345,-0.11188 -0.714391,-0.43242 z m -13.135723,0.0346 c 0,-0.0288 0.223647,-0.76575 0.496987,-1.6376 l 0.49698,-1.58518 -0.367048,-0.32933 c -0.201875,-0.18113 -0.855488,-0.6257 -1.452477,-0.98793 -0.596986,-0.36224 -1.054403,-0.68964 -1.016477,-0.72756 0.03791,-0.0379 0.852261,-0.068 1.809622,-0.0669 l 1.740674,0.002 0.549796,-1.6503 c 0.302386,-0.90766 0.587225,-1.61286 0.632982,-1.56711 0.04577,0.0458 0.295124,0.77183 0.554171,1.6135 l 0.470982,1.53031 1.769341,0.0494 1.769341,0.0494 -1.377633,1.03808 -1.37764,1.03808 0.342828,0.99151 c 0.396539,1.14686 0.674488,2.29087 0.556593,2.29087 -0.04479,0 -0.523728,-0.33888 -1.06439,-0.75306 -1.287448,-0.98627 -1.812224,-1.26383 -1.898735,-1.00428 -0.03634,0.10895 -0.141974,0.1981 -0.234786,0.1981 -0.09281,0 -0.671032,0.35108 -1.284932,0.78017 -0.613895,0.42911 -1.116179,0.7566 -1.116179,0.72777 z m 92.091656,-0.85348 c -0.34944,-0.49887 -0.34005,-0.71033 0.0472,-1.06071 0.73762,-0.66754 1.5716,-0.0154 1.31054,1.02466 -0.14165,0.56439 -0.97217,0.58645 -1.35766,0.0361 z m 5.49082,-1.45897 c -0.33113,-0.13852 -0.25756,-0.89382 0.10603,-1.08841 0.45578,-0.24392 0.94046,0.1434 0.86332,0.6899 -0.0592,0.41965 -0.49274,0.59787 -0.96932,0.39851 z M 12.61442,53.701117 c -0.249642,-0.3008 -0.09392,-0.69248 0.398918,-1.00335 0.39386,-0.24844 0.825878,0.15916 0.825878,0.77921 0,0.43371 -0.06482,0.49854 -0.498532,0.49854 -0.274197,0 -0.601013,-0.12348 -0.726264,-0.2744 z m 89.56971,-3.29173 c -0.30387,-0.36615 -6.5e-4,-0.85173 0.53182,-0.85173 0.46274,0 0.79479,0.43765 0.63937,0.8427 -0.13882,0.36176 -0.87374,0.36742 -1.17119,0.009 z m -87.71169,-2.12142 c -0.65844,-0.72757 -0.01945,-1.66526 0.861309,-1.26396 0.527881,0.24052 0.576375,1.1337 0.0761,1.40144 -0.463853,0.24825 -0.607371,0.22719 -0.937405,-0.13748 z m 101.93807,0.0665 c -0.29402,-0.35428 -0.15968,-0.96628 0.27514,-1.2535 0.32261,-0.21309 0.40532,-0.20853 0.64969,0.0358 0.32987,0.32988 0.36626,0.96594 0.072,1.2601 -0.28166,0.28166 -0.74429,0.26198 -0.99693,-0.0424 z m -6.28014,-5.04978 -1.33464,-0.94321 -1.19161,0.86942 c -0.65539,0.47819 -1.23632,0.86943 -1.29095,0.86943 -0.14008,0 0.36878,-1.88674 0.66152,-2.45288 0.28315,-0.54752 0.17145,-0.71443 -0.91912,-1.37365 -0.35985,-0.21752 -0.87465,-0.57598 -1.14401,-0.79659 l -0.48973,-0.4011 h 1.71425 1.71423 l 0.42136,-1.48787 c 0.42539,-1.50215 0.72379,-1.90611 0.82056,-1.11087 0.029,0.23822 0.21075,0.92039 0.40393,1.51593 l 0.35124,1.08281 h 1.72983 1.72985 l -1.03557,0.82293 c -0.56956,0.45262 -1.1699,0.9037 -1.3341,1.00242 -0.27798,0.16712 -0.26712,0.2705 0.15799,1.50213 0.25109,0.72746 0.50379,1.44581 0.56154,1.59632 0.16647,0.43383 -0.1019,0.3116 -1.52657,-0.69522 z m -92.089869,-0.77849 c -0.500161,-0.18886 -0.506717,-0.7766 -0.01157,-1.04158 0.322003,-0.17233 0.424985,-0.14464 0.693,0.18635 0.173136,0.21382 0.314794,0.45534 0.314794,0.53672 0,0.27591 -0.600509,0.46792 -0.996184,0.31851 z m 8.161245,-0.5034 c -0.484087,-0.19535 -0.928095,-0.83989 -0.928095,-1.34725 0,-0.52892 0.738104,-1.25294 1.277324,-1.25294 0.662965,0 0.966065,0.17334 1.244466,0.71171 0.226214,0.43745 0.226449,0.56898 0.002,1.10623 -0.150958,0.3613 -0.439259,0.67989 -0.707551,0.78189 -0.249026,0.0947 -0.467192,0.16721 -0.484813,0.16117 -0.01761,-0.006 -0.199104,-0.0784 -0.403304,-0.16081 z m -5.432572,-6.06517 c -0.445355,-0.44536 -0.440699,-1.04626 0.01258,-1.62251 0.454399,-0.57767 1.082771,-0.58963 1.641171,-0.0312 0.533753,0.53376 0.542764,1.13644 0.02429,1.62355 -0.501071,0.47073 -1.224462,0.48375 -1.678014,0.0302 z m 9.528694,-5.45094 c 0,-0.0441 0.158803,-0.48308 0.352886,-0.97548 0.335454,-0.85105 0.338046,-0.91167 0.05239,-1.22731 -0.165265,-0.18262 -0.607535,-0.50378 -0.982821,-0.7137 l -0.682327,-0.38165 1.192991,-0.0866 1.193,-0.0866 0.357914,-1.1257 0.357905,-1.1257 0.20515,0.5885 c 0.112835,0.32366 0.205148,0.76715 0.205148,0.98553 0,0.55565 0.247645,0.65515 1.548122,0.622 l 1.137237,-0.029 -0.95196,0.84348 -0.951962,0.84348 0.302276,0.63388 c 0.489021,1.02548 0.337232,1.72362 -0.22695,1.04382 -0.12384,-0.14921 -0.452171,-0.38869 -0.729629,-0.53217 -0.450856,-0.23315 -0.564746,-0.23227 -1.07156,0.008 -0.311895,0.148 -0.665328,0.38748 -0.785413,0.53217 -0.205763,0.24792 -0.522399,0.35876 -0.522399,0.18286 z m 14.986042,-9.9985 c -0.476432,-0.36354 -0.913333,-0.66137 -0.970883,-0.66185 -0.05756,-4.8e-4 -0.313427,0.19262 -0.568615,0.42913 -0.483543,0.44813 -1.145861,0.85777 -1.145861,0.70871 0,-0.0474 0.164997,-0.52722 0.366662,-1.06621 0.207578,-0.5548 0.297927,-1.02743 0.208239,-1.08931 -1.173917,-0.80999 -1.787642,-1.26582 -1.787642,-1.32772 0,-0.0416 0.479307,-0.0255 1.065123,0.0357 0.91494,0.0956 1.098151,0.0662 1.299366,-0.20902 0.128838,-0.17619 0.234248,-0.48545 0.234248,-0.68724 0,-0.2018 0.107967,-0.51456 0.239936,-0.69504 0.220825,-0.30199 0.265293,-0.24771 0.558152,0.68136 l 0.318213,1.00948 1.087714,-0.10157 c 0.598244,-0.0559 1.087712,-0.0585 1.087712,-0.006 0,0.14664 -0.721719,0.73299 -1.272832,1.03409 -0.523603,0.28608 -0.523223,0.2664 -0.03111,1.60846 0.153052,0.41737 0.255673,0.81265 0.228041,0.8784 -0.02764,0.0658 -0.44004,-0.17789 -0.916471,-0.54142 z m -9.312132,-1.19281 c -0.398256,-0.23661 -0.385382,-0.72782 0.02887,-1.10274 0.5084,-0.46009 1.09216,-0.0894 1.020714,0.64815 -0.05821,0.60081 -0.489278,0.7875 -1.049617,0.45459 z m 22.045932,-2.40167 c 0,-0.0693 0.188216,-0.6794 0.418247,-1.35573 0.475731,-1.39871 0.543784,-1.2451 -1.024618,-2.3127 l -0.866247,-0.58965 1.466888,-0.0866 1.466889,-0.0866 0.410579,-1.3623 c 0.454214,-1.5071009 0.630028,-1.5351909 0.894069,-0.14288 0.309667,1.63285 0.502172,1.75017 2.661302,1.62194 0.825751,-0.049 0.73586,0.10178 -0.561263,0.94165 -1.152537,0.74625 -1.148713,0.72743 -0.532764,2.61791 0.17567,0.53915 0.217296,0.85928 0.103092,0.79276 -0.105368,-0.0614 -0.629895,-0.40598 -1.165619,-0.76582 l -0.974047,-0.65425 -1.148256,0.75417 c -0.631534,0.4148 -1.14825,0.69746 -1.14825,0.62814 z m 34.649795,-4.7838 c -1.095793,-0.61417 -2.732998,-1.4308 -3.638225,-1.81472 -2.166115,-0.9187009 -2.158028,-0.9130109 -1.923628,-1.3509909 0.105151,-0.19643 0.191133,-0.51359 0.191133,-0.70481 0,-0.19121 0.07924,-0.39666 0.176178,-0.45654 0.212465,-0.13131 3.707491,1.47165 6.129514,2.8112509 0.96272,0.53246 2.254538,1.2433 2.870727,1.57965 l 1.120332,0.61154 -0.947086,0.22102 c -1.555625,0.36302 -1.850374,0.29662 -3.978945,-0.8964 z m -43.480073,0.27597 c -0.399848,-0.74711 0.562557,-1.4931 1.124782,-0.87186 0.155999,0.17238 0.257879,0.49526 0.226404,0.71751 -0.0799,0.56413 -1.071273,0.67737 -1.351186,0.15435 z m 49.45717,-0.73953 c -1.790366,-1.26236 -6.290499,-3.6671009 -8.532522,-4.5595309 -0.898157,-0.35751 -1.602541,-0.73917 -1.602541,-0.86831 0,-0.12672 0.07458,-0.42678 0.165914,-0.66679 l 0.165902,-0.43639 0.794403,0.27068 c 0.669442,0.2281 3.791083,1.77513 7.882726,3.90654 0.931602,0.48529 1.947061,1.1554609 3.765116,2.4848609 0.42192,0.30851 0.19858,0.46416 -0.77276,0.53855 -0.741864,0.0568 -0.933479,-0.012 -1.866238,-0.66961 z M 69.392219,9.9245861 c -0.475408,-0.34762 -0.313253,-1.03378 0.294614,-1.24671 0.423353,-0.1483 0.540603,-0.11639 0.81423,0.22152 0.633663,0.78254 -0.282402,1.6295109 -1.108844,1.02519 z"
       id="path1" /></g></svg>
